<mxfile host="app.diagrams.net" modified="2023-07-24T04:40:22.870Z" agent="Mozilla/5.0 (Windows NT 10.0; Win64; x64) AppleWebKit/537.36 (KHTML, like Gecko) Chrome/114.0.0.0 Safari/537.36" etag="xWgMLNo4mV5L3jCRz6oT" version="21.6.5" type="github">
  <diagram name="Page-1" id="f-aseEs_O47HrqsWs9H9">
    <mxGraphModel dx="880" dy="452" grid="1" gridSize="10" guides="1" tooltips="1" connect="1" arrows="1" fold="1" page="1" pageScale="1" pageWidth="850" pageHeight="1100" math="0" shadow="0">
      <root>
        <mxCell id="0" />
        <mxCell id="1" parent="0" />
        <mxCell id="4IOT7YRZeel1PPsYH2Uz-1" value="" style="verticalLabelPosition=bottom;verticalAlign=top;html=1;shape=mxgraph.basic.donut;dx=56;fillColor=#6666FF;strokeColor=none;" parent="1" vertex="1">
          <mxGeometry x="130" y="120" width="350" height="350" as="geometry" />
        </mxCell>
        <mxCell id="4IOT7YRZeel1PPsYH2Uz-2" value="" style="verticalLabelPosition=bottom;verticalAlign=top;html=1;shape=mxgraph.basic.rect;fillColor2=none;strokeWidth=1;size=20;indent=5;strokeColor=none;" parent="1" vertex="1">
          <mxGeometry x="280" y="119" width="40" height="60" as="geometry" />
        </mxCell>
        <mxCell id="4IOT7YRZeel1PPsYH2Uz-3" value="" style="verticalLabelPosition=bottom;verticalAlign=top;html=1;shape=mxgraph.basic.rect;fillColor2=none;strokeWidth=1;size=20;indent=5;strokeColor=none;" parent="1" vertex="1">
          <mxGeometry x="280" y="411" width="40" height="60" as="geometry" />
        </mxCell>
        <mxCell id="4IOT7YRZeel1PPsYH2Uz-5" value="" style="verticalLabelPosition=bottom;verticalAlign=top;html=1;shape=mxgraph.basic.rect;fillColor2=none;strokeWidth=1;size=7;indent=5;direction=south;strokeColor=none;" parent="1" vertex="1">
          <mxGeometry x="130" y="270" width="60" height="40" as="geometry" />
        </mxCell>
        <mxCell id="4IOT7YRZeel1PPsYH2Uz-6" value="" style="shape=image;verticalLabelPosition=bottom;labelBackgroundColor=default;verticalAlign=top;aspect=fixed;imageAspect=0;image=data:image/png,iVBORw0KGgoAAAANSUhEUgAAAFgAAABUCAMAAAFGjjDrAAAAAXNSR0IArs4c6QAAAARnQU1BAACxjwv8YQUAAAAwUExURQAAAAAAAAAAAAAAAAAAAAAAAAAAAAAAAAAAAAAAAAAAAAAAAAAAAAAAAAAAAAAAAFo/HAsAAAAPdFJOUwAQIEBQYHCAj5+vv8/f70EnA8QAAAAJcEhZcwAAFxEAABcRAcom8z8AAAIFSURBVEhL7ZeJdoIwEEVBoUqhzf//bWcjC1k65MRCW+45mvHxfA4hCHQhhnmjmpTum3qeXU2sulcTXHv5OcTDteadWkjolLF6vJqhWoUxd4frHSIkCiuFPK+EskMj92aBV5Tt8GUfK+9Dvi2ICLJMBzJ4soxI78ujBOAOiNjMfZdpnUN5IAnRhDg08s2YD65DN85Qou9n13OtyA4QMSsfgjSRJFploEm1ARZxA7M99paCmVZEQKs27IK1NE8WEWmTnCJvnp5QsbCSN8MW+JvikSiY4VSa7dkk5JMTtDBnicwXHvGy9xCPZa95kMvLhrT5JuWGA8ywIQSWELyLx8Jm+RtyDK3akDxHKRk2hJR6TtHGjL8ccPDUiYpkzbCBERUJPxEVbaQ4uxlvZB7+vAFZ82LMtP2JfBvgphEGorhE32ET3nKREyiZIRguQNo2IHbS7mCKnzbnEY/ldeaLs1I8jCXghCryW4Mz51Yavr3908HxI1MEXHcrgrksQmn/YI5fNhXxw3FE3cHTsjv4Wm7Ia4PjqSBHxO7geLmRI+IfzLGWMwX3I490gmXZHdzjvTisBLjVxyHL/o57fCQgFtmF+wZugCz75vj2SR/xEQLhCA9Kq+gYHjSYRaKlUUtlx5g7wZMJDGtyipqpGDnvUYitC1ZxiuBRDo6Kgb6iC67gsOCL1nTdFwJ0ahzAnCjTAAAAAElFTkSuQmCC;" parent="1" vertex="1">
          <mxGeometry x="371.85" y="160" width="41.91" height="40" as="geometry" />
        </mxCell>
        <mxCell id="4IOT7YRZeel1PPsYH2Uz-7" value="" style="shape=image;verticalLabelPosition=bottom;labelBackgroundColor=default;verticalAlign=top;aspect=fixed;imageAspect=0;image=data:image/png,iVBORw0KGgoAAAANSUhEUgAAAFkAAABqCAMAAAGXPD0IAAAAAXNSR0IArs4c6QAAAARnQU1BAACxjwv8YQUAAAAwUExURQAAAAAAAAAAAAAAAAAAAAAAAAAAAAAAAAAAAAAAAAAAAAAAAAAAAAAAAAAAAAAAAFo/HAsAAAAPdFJOUwAQIDBAUGBwgI+fr7/f76CUZ8MAAAAJcEhZcwAAFxEAABcRAcom8z8AAAJWSURBVFhH7ZmNspsgEIVDvE1bbZv3f9u7fwEXdgMY7h2b4csMyOGwIqAy5pJxFahwp1SyO/y2LRZ2GdbsCuu+sMvQFoJXc5coWY1ABZeyz4/W0ONNKZxSJsdFd6MnhGDqsUNaJ+i4DWnxQFQ6Q0LrWPqDZHqi9HNwrSe0jqVeP9PkV4g6ClkDgoj5SUUEWXKiRYa2C6ylrZQ/aD60nGiRU79y+Qd3WskrLVhEyYkW2YmNAqz6kMmJFhmDMLlsnTJRlxUiuvK5kN7ZiCchuo14EpbG+O6/AJcTvhtSzGj+iFijYe0fwOWE77YY5YYUs8Z+i+F6exBrNJbGjHJDWlRV3Y1X+QFwOeG7LUa5IcWsb3YUvtvCcf+0cdw+4pk4BHk3m4gnssigmuTr90vN+BQwgFX73eYFntmLKA98s1wNbloIGOKqmcYAgdNUzbQRRZ5FvsK7IK9xzRZnN0Na1FTNOMREyzizE2gxy5vrdoM9nGsO67o2LySLs5shLWqqZhxiYvik4JaaeXaB8F6GeoVvNji7GdKipmrGISaGT8qeMRdoMcC8yYYkYzXNPt9nnkxqPF1QT6mttv838varB7j/gbbIzvPGAR5DwLtH5uN6m5cjcwAFb75OHNmlP3IrM/Ke/sgBP+wYe8ic/sh8XG/zcmQOoJh3SsmMvKc/8vU3U3x0yuiPzMexTfqSHOG78+XIHEAx75SSGXnPgRnEv4mMr445ByLTcWxD/61q+O58OTIHUAxaz/THr+Zon/ErKVJr0x+5lXePfIR3jHxZjlLbV06+gsvlE7JMgRAvyFJsAAAAAElFTkSuQmCC;" parent="1" vertex="1">
          <mxGeometry x="150" y="321.14000000000004" width="37" height="44.07" as="geometry" />
        </mxCell>
        <mxCell id="4IOT7YRZeel1PPsYH2Uz-8" value="" style="shape=image;verticalLabelPosition=bottom;labelBackgroundColor=default;verticalAlign=top;aspect=fixed;imageAspect=0;image=data:image/png,iVBORw0KGgoAAAANSUhEUgAAAD0AAAA8CAMAAAGV53LoAAAAAXNSR0IArs4c6QAAAARnQU1BAACxjwv8YQUAAAAzUExURQAAAAAAAAAAAAAAAAAAAAAAAAAAAAAAAAAAAAAAAAAAAAAAAAAAAAAAAAAAAAAAAAAAAKMFRskAAAAQdFJOUwAQIDBAUGBwgI+fr7/P3+8jGoKKAAAACXBIWXMAABcRAAAXEQHKJvM/AAAB/ElEQVRIS+2W25aDIAxFUcdbxer/f+0khwOmgl20D521ZmY/SC5EIYaLK+B9u3svwg5UaAcKMFpXiSY03u/d6T0Q4ax5j8V2YgwbGPDwQjSs/bbvXwINxzOI7/HFlvR7T8kN+nHRtRlEx+BubkYb9UjQ8ZDuq9VB0GcNlhkM0Ed5uBvc0DvVJxVb9j9Q1wfp5JMt5RK9+FOiEhipsrrZL85TS6OnlmP9axQMwR3MJ0mT9fj+oQm/yHD4kXNB0661JMhcaNzDLwATAgltMjgtBnAPxakkv9iKbPT/ErrTmnlEFmnMRwnNB8USRTfzLDsP3FSkwsCRddfIRoc+IKTd/BTRGopC5n7kBbesFF0wFuOek3TnwB/cqMhFpRuMmgPjhqiCwX57azvNuMW6l3EKy3BhtRv3xl1dc+JzN1qAF5B33IWJMROCGA8pussEt6z3Mk/L8p+fYERtxk33RaQYQX7Q1KBH1AeiR3Y0jK4JJXxvnN6yTmA/IKVSn+grvptrIHCxUHSbWSmfqIh+wlX0NnVNnx26Z8rRWzxyY8YvKEfrvSzAe5QQdxuC7aIcffQ04wl7UQI29lLMvPUiLGT774mrrNVRipZ80yJpSxOvmndK90FcZjlZdB58uihZ6qPjuUhQu/XR9f+7FhuNk/kl9AJ7wHO1ko5H8t/EuW+wvljyrJhvtgAAAABJRU5ErkJggg==;" parent="1" vertex="1">
          <mxGeometry x="330" y="134.45999999999998" width="41" height="40.33" as="geometry" />
        </mxCell>
        <mxCell id="4IOT7YRZeel1PPsYH2Uz-10" value="" style="shape=image;verticalLabelPosition=bottom;labelBackgroundColor=default;verticalAlign=top;aspect=fixed;imageAspect=0;image=data:image/png,iVBORw0KGgoAAAANSUhEUgAAAHoAAABTCAMAAAEQI9O+AAAAAXNSR0IArs4c6QAAAARnQU1BAACxjwv8YQUAAAAzUExURQAAAAAAAAAAAAAAAAAAAAAAAAAAAAAAAAAAAAAAAAAAAAAAAAAAAAAAAAAAAAAAAAAAAKMFRskAAAAQdFJOUwAQIDBAUGBwgI+fr7/P3+8jGoKKAAAACXBIWXMAABcRAAAXEQHKJvM/AAADlklEQVRYR+2Zi3KsIAyG1V3rffX9n/Yk4ScCgotb7el0/DodJCFGwsXgFrnMy7Lg0kB1XxLWi6JucCFMS1k01ApVaV8vX6sVCwwQnEJwu/D+Yb0oepQC6Zxnbrkt/VmTPqj/GOxRQD2ghJaAJATaEtUQkpO2KJ6oOxjDgS5mW4FG4JCIbKB/cfDwGqi+WDr7FKmH/J0guC2qARp6ik4EKAkIfKAjIPDh+WeAIKAxyrhroe1SQ07W7H+MjbnpFbWQJguNnAsNMMMq24MJKsZIPDVdKJCUUIvEaASoB7p42ApUDCQ81QreSuT65gNKWrCGL0iyecLQsjP/tsDG5QHVe0LPAnQZwMAlsayjTLBR0msrjt0MKWT5ff4uZWvf5S/2zBc89GPNV3s82c4gL/ZpmmQjgIxIDzwaABJUKJ1XFfGSxiFrmASSyEZIpc5Zg7QOCazp0W2/pb5imgcE1tRIiiZ48IR1N/uIjGdJD4GFFTc3vwVd65ToHQVZCIAwF1mbDrFsJElovCwVNBkgjfGAKoOt6yPWMPDI7zkMPPI7viaVK1DlAAsHPzvcJ9xFvcwxA1gB77yZgzPmH0x0pun67tAcPYUnuzTpB1cPJC1PtpK+srFEmy92jgWK7glcaQi20QHcTWDW5NJY95Q7cGlTdiI9a7w0iwW81rj03v4J/yPUBn5iLrmxCBRpvAFKwNPLLVfiDw8l4KBzyW1FoMSnHpQWSEaEfG1zxJryDCfkTKa1pGtUBglXlnUJnxtFljUFm3aomUYOAkvcGvmUhcJFsy2iiFvf3Nzc/DfKR9OP02teXq+xb38qsSi79WjvciST+4QqeJ34TAeS94M84v11ueiDzG6PLfLWOpvwS0aCC16MJnnI4PyYxw51Ud5+/TpO7EgY4YpvP5tjVZT5mgWWMcWHjOPGZ7xxPl7mmKmSa2y8aDvxqQdvzs2DHNH+PtXocN1bw1A+Wz6R2jO38xOE3UP4A9irq0+MfdWMzhtLd4wagvUnG3f8x+6bm1rZbrewZEoS2Wmnw78kMaWEN4J+5YBew+B/cFw5mL480hu2ukJdf+nZMTmw4nUcYyDiGt+wHiM/8LtZAQKo8cX3tdgXQyU/f9h1jYhrG9zWxntw0OlykmtEWG9rHkXj3TmEj5fBvmsTcVQImWe78T7NtXTTmVUShfT8Zs5yLb4qDbgk/rvz+0TXuBEv/gn7ZQdVgnzXNzd/hKL4B+Ppl5NVSpBcAAAAAElFTkSuQmCC;" parent="1" vertex="1">
          <mxGeometry x="221.2" y="412.41" width="58.8" height="40" as="geometry" />
        </mxCell>
        <mxCell id="4IOT7YRZeel1PPsYH2Uz-13" value="" style="shape=image;verticalLabelPosition=bottom;labelBackgroundColor=default;verticalAlign=top;aspect=fixed;imageAspect=0;image=data:image/png,iVBORw0KGgoAAAANSUhEUgAAAPMAAAD0CAMAAAEOKtAjAAAAAXNSR0IArs4c6QAAAARnQU1BAACxjwv8YQUAAAA8UExURQAAAAAAAAAAAAAAAAAAAAAAAAAAAAAAAAAAAAAAAAAAAAAAAAAAAAAAAAAAAAAAAAAAAAAAAAAAAAAAANAvJjAAAAATdFJOUwABEBEgITBAUGBwgI+fr7/P3++4JszoAAAACXBIWXMAABcRAAAXEQHKJvM/AAARe0lEQVR4Xu2dh5IrKw6Gvb7esWec7fd/11X4AZHptifcWr6qMw1ItBoQqYPP5v+A3fOpAXdMeD6fWz4eKCAJqWKa7PWUfSr3BgXSlgzumMKpXyw/Onmsxqk7ln+qnP8+jxBuNjeOfnj51+b5CAUhng9Ofn5dVP6k/JEBiTF3lkuUU87nMxREzkeR88Hl4MTN5uKCKkcq4RToCnZ8XCp3CrE8KFwOZfmVI0YvketpcW4mlbNQPWLyp3Ht5dstJhM/n58aELivMOS/ckxO83xe5Ej9S46UcNcAQ7qS7o6E8RhJ9eIHBbgTiojRnv5Q6ZnSJQAhxTh+o78nTuUYJ0AIMf91Rw04KByJNUDdGf1Z5RxgIcc1CafwIRX7CoPY5cIRiYTLXhbv7k0xRSUcixHZPA96TMWayXX3XLw5u0JNJivYpv6zxJ+4H1l1PlmUQJx0iCmQKUvcDEC5RswHjo49jqCeG9dJIAGxWJuWHAhF8MrDIQkIMzLHChyzI7FD1BhaQLE2Lax4TlZEg1KUwvRMKiqj3KxNf5GbRdGlREUROE1FPCxLgqwHCJHpH6hIDgvZlFUQy9w/l5vqUzT0HHLMUQlXKpebqtblVih03vBsEIBEQFJIpNxqkaBhX6tLFooOEQlIIJAQ5baaDqNKaI2Fxu3lZuEJwXbuQxjaHSQgqT9rK3eY1x0Sf/rZpJ1bDCFExH2P6eSW/I65mJxMJv8KaKuCkPJBAxiCfWS4Q5jRBQEiXUQ5G0IRUba30sqByRZYaTy/OovIeKsGJJ7nNhoWmZwRFjjuZxqC9yIEYhnZaipO0LJVbMvEHiYiXSRFK0tOKJvWm0ME4tnqjzlXLEOTqSS0gCIjG/EvRBhRYLJ6dTx1Ey1oHFAOUQhlQdRALs1erXACghRx6oiXclMicsMWtbTGKXSj+FVjDItjKBG5KUhxXh/6OCX4FiE0h4UaFmtgCtLS7h5yc1DCW5eS4ZVhCwGE3R1QTcnWLOTBEPncVyRwmPQlRJdBZBsblomELpuLTBFJJPhIDkahfd6JFV1sKRRIc9MfrnOXxDc7zmfT+z7CxgEpIbesuPUcmgTyvRaBOKdw2RHR3OjhABIGKZXcT6lYDlhEJCDBVGmcO4VrEEFCszJI6OSWDAgS5KmcghhhcvM95wxSDjvNVu5NaQcYGW/nNuke0vattjS3NINPbua+Z97NElL/B9Fm7hAAexLa1HZu3mYYpCtZ2rljUbZD6uWWqUZnGh59JWDo5RbzIN1OjeR2+at3TSaTyWQymUz+BXRvDX/PvWO/2U6eC3n87rr4nOcFzP62e1ehcsNjJfxcyIO0CL9JZJCWgwLYmzt9NI+CpAjsexWkpejOWkDKEObU5iaRwTy0qzibvTWzyDYv6pm6E6nCo+rl4S4PgbRhtq91Hlhlat0kJ7rg0nPOroKAiivskyrQxjDHXnbUiI6yRywE50qAkIicOwBpjN47Gx105Kmr6RfkSfwnVJrI7C01jYTX54Dt+mPGVVX+Ah1fIIZC1CpaDxAr8UPdMQ+XG02PgmlXKqmVa2QaVwOFzTaqEmXExUVxF5uOSqXh2LTWrYgrnjDg5HpK3y2EHa5HFMS9H4lpXA8jIeaq9eMQYRNRO8S5zvbJhoR2qWmJygwGBw26QBJaaGnjTD7OCq5qE9NBAVnlBrsGFX31rYFoHeMpkbuGOCyXSuI0CaamRUFOD982QaE7qYtWfLkEZZNjUMhMe4HLLKY0qIisATsRzRmqHFDH5d7DBeFJJTPtFLyPs5aGiohqTuRkjH8L16N+ddWBEmkOdGsOaqiIqGZAaIAgIKavUEUas+WrlERNzUoRKC2bzALEkY3BNdMa+bg27wlKJvvaiQeSCIg8ddNdVybQ+YtDnPRv59ilqbhiGm84dXGPJBC1rDXN3j20qnKNiqhhrWmOj9S474K57dWmuRURbHDnU0rW5/M/muRZbVoSEKxCi0ruWZI3s73e9IBtfiQgAVbNlF8wLUmN9pZGRnhzyFcvr5jWZWjFuJy4MJYEXjKNVHmSHKFzcaNGmBdN2+3J+fNw+Pzyq+vukuFl00Sy3iDqW8NvYfd5vlxOX6XLn0wmk8lkMplMJpPJZDKZ/Fvo3t35nts/+hSscedQn5tU3gh4Af+0F/EMiHs3FxcTHjNXzhwUrkh5D/Zdn2Jj2mdOSHoP5uOf8ovq9tF79h5C4HC958/+muCcCtIiIBKqj9zdayKIDoEsCtIiIBKy+9ogvJ+ChBH83WmiWNuQCZWe554WEQv8v+thcrcbICnFXj2SRkAOonK9kBK1yoZY6N7YNyBL/XIhrtck5MIiB9eHmY1hQmuzPryKGDQ6XontvvMUYtdUgFFh4eOM7WtT0cph7ugHqUpFBYWq94RxbrgI2+g3KgrOmyjUHvo708Nv7dn3U5TEjdyT9ECl3PIQbPwDJTsZeCATkBTxjlnajk4Bs/RIXlMEtaZc4NV20AuYMiEloVine6m/2iCXIufJgZRAQgqkhvD+HBI6QDkFUgIJATUAacC+WYOkJuKOBXzPyP2gaDlWG+nQcqVxd5WW9+0osahfqeWoY5m5WRjpWaIYX7A6M+SqYOfv50MGANuv4itnIGihevLXoQWAvKDwiBUKI9GIZZxE/jpgTFE/iC1HCvmDdwbCBrpqK1lGO0oL30qW9R2vyrtiImsi/nNKLIs1OImkfCaWZXku6w7TNXxvZvpDmajh5VOHfR9UJTiAh1EIRf6IdPobP1GLT+yiVQXyajmy2A3q3DYICt2FmHvRVA4ORKXCtL/VLUMg446t7u5cpuNIMhCg9WVxouNIZlmMiDlJUUNR7+KEFqJ0MPsS5kvrUM4mCTQWyhGQQBTEB7EX5KBdiI1ZTmfKu+vlQSG1HBRQXdI0GlQ43sCdQA6BYBDjSGbZKziJeJQGFZHVwTgSZSGQQD0D40isEVuGX3FQQ0pntpKR/pQ4GJ/FjSVyWu6bfHSwZfEmcTG0LgftxFFdGytiYJc4GOeSayHnFt9nTT462LJT8CK2ZFdsd/0NDKWwhicVqsvYweSmABcWCrLVknTAliUPH72IQmndGfxCw/PBTglpgCUYedFeEAhi2Su4bsxBDRUR1QwIA0g3SPL1Ki0Jyx6RSanSyjOkmYRowSFAYECy9DJ7ErYnMnUpDRYpOXvqYCXHlOSCZb5PpC4tZ260dKm+8zrKq0aSC5bFICe6W1V5MRyFiRMSCyQBpKaWtzp4H2+t7utaE1EDBBZIAkhNLVMJEWohmQtL4dzBxi3TTIVQE8mdq5ZaJqs8Sc0tU6xyjyECaybrIA4RmGMGBAXLQztHzkYUepakm2MGBAXLpYJkuE0MogaX7I4ZEBQsF9UzWJHIe5Ykm2MGBKllN7F0qfYsl+qOGRCklnm2QLADZySyniWp5pgBQWqZlwX5BFiEcxLpVwOSaI4ZEKSWOd1GK7BKpWdJojlmQFCyXNSPuPjRnfivpjkkzRwzIMgsc0N3dzKS1fWspNCSZo4ZEGSWRYBgDeeGrIpgwCW5YwYEuWWenJNiJPCcLWs57VnJnU1JM8cMCHLLImm6d+jzXPj0Kjn7SstYOVfhSvHl/Mw+JuPcKy3X8wjcmVqt4XK7YwYEJcsqq1S43yrUkMzmmAFB0XLRcwRdELqFeRHRMMcMCIqW3dYq+25Q99btX2EQFXPMgKBs2S92bbm3WNI2S/yyZciZy5G/wvFPlUu6EaJljhkQVC1r58poLYYVUTPHDAjqlku2S06XIormmAFBy3Jyi+Yx+hME7+JwPF8vp8HVwmQymUwmk8lkMplMJpPJZDKZTCaTyWQymUwmk8lkMimx+7rJ9z6Xr84bXlX2RznD/dL/nO8voJ9Qe1a89/QVn+HWeC/zT5CUWFhW6sL3Dj/8M9ULwQdTCSPfXTj8C4gR7dcvf5Xa10L99xgdeDE+4+/6Ny4wo/vSqENekCyRfRLRZ3sK/WzkJc51VK944DtuJf6lAEP1J5JqZL1sSQdbAk6fMXzF1Vpb+CtcxU72PYNCeQhbUsfl95qXXq/9ytbwPZN9eQha0pvKX6mOD4JM1Vu+ZySM3sMGy9qo0NJL1zWVZv6+Pp10pcdyh0p6yH3xu+S1LvaNw/dmf1IPvZ3WvnB/QGtfj2vOUHI24Q8vbV7G/kaBYcUkP8b2cLzptur5uF+OKz5y2O6Pl+vtQee43y7nrzUtXSz0dxR5u6/U7/MyWPL6GU4Lh9zC/6fz/k9M9o2fQhC6W8LXzxCxjSaA69unqe7lKre6m5b2oAWW7qUPn8evT/mBjTdT+g9DK1Q2Gx/jZxj9Pbdvprb/K1EeR2q9uMSSJdn2cOHavL/9c7H6bqpEyTnLvyNWYXRf+pEs6N66Bquu9IqUvi9f4ihjO4XiAPO+xja9uX7tRoJsBuMo1TM8wj2j3rbS3iuIWbghrWPW19U1n/3/nPP+GJzwVr1n8DDnbi1SqhO8sGx7Vid40anes3ehXFl/ND/381kvs7FTW0/VG9gxfI+qjan/+P+pjtgZtbQ/BkdJ/jdpi/s5P6E0Dn4MDQpr9zwxoZ9dGiP4zkxHaTMZR2mV2ehl4+DgmuhNzm2mmUOzzNVmMsVM/utuC5U5zA+Ri/Y92vCWbUbwKFogtcpsmimeKaPma5XZ9HvTXNX7A0Xe0aFNKambNstcaSbjKKTUKrMpXjhD6Qbn4+R+BCLnDR06Ho6bZS43k3EUnj2bZTZn8JeeNfNNhsjqOun1Dm2ugh22eFdZYFOlZrLVxDdummU2Z/D9Mv7tNL9jNBcW83qHNoVka/XRk3dD5jrCKtCsRzjaLrM5g98eRg0dRora0sRU90pCIfmOYmurwM4Yyudr25RCfLJdZtMRvI/GLeraue5yry66zRWysdaqgKfUeLgS7HqE6ZQ5THihvaIspcqMeXV7FZqZbVXNMHKN+bokdpRumc0ZQntFPcov8srPsV/eZ0TrkdYIxrAzZuuSxFH6ZQ5nCIOROatp/yjVAvlKovVIawRj5NFkUFEXC3EsJ3tlNjl8142f9njfra3OXuvQwT43c2sEY3gUC9OmNlO4LpSgW+agEDpmeRjLZm7wWof2pZQCtEYwRlrS9ceHXpl3QHch3TL7RsUZhGgF4py+6twtBpyA/+P7x1msN0cwRq9aNtLXcGo5Q3iNrF9mvW99jZ88BY8j3DAWJQ6zxPXbIxgzsuwbKHOJ4jDWbYUyfuTv06/V9mUrocwyp4SVaSdzNIy5q17l3YXdeY2R8w/saRaXGU/CojYNLdUbY8qEabDNyNkHzrW0zAcnMLNGtOr4XNOrx175Kf00dA6UGywtM5XIDROYm665N233h/3HTvmI2HviNuv0JKU/gjH9UWxhmaVHvecJXDQi2BVPlTEP6lffwjJL64x2vw7BtNCds0ZHyO4otrDMWtVLptQGSSF6c9bo+NhtkmVlxmgtqm8gGZTGXjJKLxERYqB7CMvKjIss+8AKklXMUKf56TK7a3zfewTxuHRPf+W8wE+X2RkYWOyMksxZ/UL/eJmxTXttexiTzFnJT7vn/HiZ3SbynS/JhEsQepPCj5fZdei3NPQRZ1k2Z/14mf3NkAUbwBpUVOyoFs1ZP19mP9COGqgiBRWj2ZzVXDL/Qpldm9hbRWvAUz23o4rnrNbo/QtlDr3vpfeU3Vn8iGXnrNtfK3PYOb/wQrob/029mScs/yCpyK+UOQw5a3+S3v+nyfG8pBVR2I9H/E6ZzZCz+Csswpd43VeZv1Rmu3ha+uLv1nfckduyBX6tzNH/6b3g4sNXx7e1S7nfK3Py6GhoifIZnhy98A7/b5aZlKOncs0v5Lefxi9e+6j8d8tMpPdrrtknMPyFTPzE8vTaBuXXy9x/Oppgnpyt5A+UmfiovWKQYB4NvsDfKDOTvqSf8lj1fV4RPB4gkuhwjUKfKEUXcjhmTf64Hr/jM5zJZDKZTCaTyWQymUwmk8lkMplMJn+EzeZ/fc+rGTTSGxsAAAAASUVORK5CYII=;" parent="1" vertex="1">
          <mxGeometry x="240.5" y="218.34" width="136.5" height="137.06" as="geometry" />
        </mxCell>
        <mxCell id="4IOT7YRZeel1PPsYH2Uz-17" value="" style="shape=image;verticalLabelPosition=bottom;labelBackgroundColor=default;verticalAlign=top;aspect=fixed;imageAspect=0;image=data:image/png,iVBORw0KGgoAAAANSUhEUgAAAG0AAABfCAMAAAGik4lUAAAAAXNSR0IArs4c6QAAAARnQU1BAACxjwv8YQUAAAAzUExURQAAAAAAAAAAAAAAAAAAAAAAAAAAAAAAAAAAAAAAAAAAAAAAAAAAAAAAAAAAAAAAAAAAAKMFRskAAAAQdFJOUwAQIDBAUGBwgI+fr7/P3+8jGoKKAAAACXBIWXMAABcRAAAXEQHKJvM/AAAEUElEQVRYR+2Z24KcIAyGRUVBUef9n7YJ/HhA4yg7tdt2v4tdICCnJASmeMsLIOuKiTINcqm02mZDxXHJBmK2MK/XhMxOGvPI3QJN57YNpaeiQy7IVoP0VDHLI9KJlMYaGV8vU8RRB2n6KYXsbQZ8gBhRFKERrZk3wEMFfRmSpaNMSAJfP0I5FAcGtCB6WgHKrgjlCygGKATbOXOJ9SMqLad9YYQLZtIBMdqPqK+R/ZPUfpABjTKA0ghKAyiLoNTDs+pQ3tOqrb/KvbVIt5ROZWtkWbEdKUojKPXwWNg2iIn7Tb/ZhV1VvId5Y1FnY1lsn+CxhI1/OdJElX5zDOqg2UbyxlJvx0KGvCK1t6IwXGG02cb8vajabmDPTas+dOaCaa180Y6tm1ijUEMCXmoH7TgUcc9Ezk4aMO0wG9Ehqt9qw5pUa1Iy2qmS/kjtUitMkeZA847+eQebycm6TKKMtvbBdfFzz10X1NrBc6Po4RA22bNxGqRTDNnH374ujA52nsJm9MO/i9LWjX7rp7G3jeRpVyh7rCkW8kNOLUFUsRjxCDhUS4FYYhNArIH8GLEV+Q1xnE6x+JBgjKVJ/PRg/ZVCSbZKVWKst4NNGMmU8PEpOcJVbRHPoCAlCGVQLQVSEVRLgfQA42WoluJrHNL4eATVUraR3A5xv89CHFElCzIsjs2PmOhoEbXEa0OhfVg5M9iwj/XJkkjmqPgARDrFf5xio42aqKqNOoqSFEhFUC0FUhFUS4H0gMbvKaqlhCpHnDZ7oyX7CwA4dV1nWuKvKgcMpAlBGfZED9p0S2MK2JugVe3Jkjgh3ONo791KkprMastKEo8FFKVAKoJqKZCKoFoKpAfoPC2x/gkL1VKkYBuI+y25BI/o5xlBv8RrzYqy6eJekZK0klL98MP/iiKQ/DSqbh3eVE4Yt2dwBnX/tpM9fc5tT70J008RXaNA/K0glwsXnDXSa8E1Tq9Ex5yeCDKTuTkxUpD4y4ZO7yAyk7PxzDfiI8QhfAEMb/sLpdaNMV3X947o+77rbNvqutranr9w3u/N44y+ashKm9kuM3tbMQ59Z03bNI1m6H/b2s4N4a695eu93eGJ3qZZox7ojTfY/170zNysiUH2vd6+tnE573C6R+N7uCWsv0o9u3FyJtfOncnN1wfV3d83t1uPsiIza1tjjCXDI5q6KtOZ+HtNrpb0V50JuZJlFT6hk9Po2DlamhzNznbkSIQY4gkLWHigNzpy4h38gd54fxHO3OuNf8a5j+vyTpyiEl4JLsFPCXfgY1tlBSYZYQmZaBwemxE+dApHJbFNNWRoydHPtWVV17U/u+u6qpKQhFH8y0++TpIzubI2G1fyKQuYxmHggIuiroEcybEnecTeVjzQ22h0vKs80BtvL07ge729+zlcYHYJd2+OeWFCwF07EbfoyxeOhcm1OV3NsCG9ecxlw1i5ko+ilCrL8vc9K/zwzSiKX0r161esLf1RAAAAAElFTkSuQmCC;" parent="1" vertex="1">
          <mxGeometry x="326" y="409.70000000000005" width="49" height="42.71" as="geometry" />
        </mxCell>
        <mxCell id="4IOT7YRZeel1PPsYH2Uz-18" value="" style="shape=image;verticalLabelPosition=bottom;labelBackgroundColor=default;verticalAlign=top;aspect=fixed;imageAspect=0;image=data:image/png,iVBORw0KGgoAAAANSUhEUgAAAG0AAABfCAMAAAGik4lUAAAAAXNSR0IArs4c6QAAAARnQU1BAACxjwv8YQUAAAAzUExURQAAAAAAAAAAAAAAAAAAAAAAAAAAAAAAAAAAAAAAAAAAAAAAAAAAAAAAAAAAAAAAAAAAAKMFRskAAAAQdFJOUwAQIDBAUGBwgI+fr7/P3+8jGoKKAAAACXBIWXMAABcRAAAXEQHKJvM/AAAEUElEQVRYR+2Z24KcIAyGRUVBUef9n7YJ/HhA4yg7tdt2v4tdICCnJASmeMsLIOuKiTINcqm02mZDxXHJBmK2MK/XhMxOGvPI3QJN57YNpaeiQy7IVoP0VDHLI9KJlMYaGV8vU8RRB2n6KYXsbQZ8gBhRFKERrZk3wEMFfRmSpaNMSAJfP0I5FAcGtCB6WgHKrgjlCygGKATbOXOJ9SMqLad9YYQLZtIBMdqPqK+R/ZPUfpABjTKA0ghKAyiLoNTDs+pQ3tOqrb/KvbVIt5ROZWtkWbEdKUojKPXwWNg2iIn7Tb/ZhV1VvId5Y1FnY1lsn+CxhI1/OdJElX5zDOqg2UbyxlJvx0KGvCK1t6IwXGG02cb8vajabmDPTas+dOaCaa180Y6tm1ijUEMCXmoH7TgUcc9Ezk4aMO0wG9Ehqt9qw5pUa1Iy2qmS/kjtUitMkeZA847+eQebycm6TKKMtvbBdfFzz10X1NrBc6Po4RA22bNxGqRTDNnH374ujA52nsJm9MO/i9LWjX7rp7G3jeRpVyh7rCkW8kNOLUFUsRjxCDhUS4FYYhNArIH8GLEV+Q1xnE6x+JBgjKVJ/PRg/ZVCSbZKVWKst4NNGMmU8PEpOcJVbRHPoCAlCGVQLQVSEVRLgfQA42WoluJrHNL4eATVUraR3A5xv89CHFElCzIsjs2PmOhoEbXEa0OhfVg5M9iwj/XJkkjmqPgARDrFf5xio42aqKqNOoqSFEhFUC0FUhFUS4H0gMbvKaqlhCpHnDZ7oyX7CwA4dV1nWuKvKgcMpAlBGfZED9p0S2MK2JugVe3Jkjgh3ONo791KkprMastKEo8FFKVAKoJqKZCKoFoKpAfoPC2x/gkL1VKkYBuI+y25BI/o5xlBv8RrzYqy6eJekZK0klL98MP/iiKQ/DSqbh3eVE4Yt2dwBnX/tpM9fc5tT70J008RXaNA/K0glwsXnDXSa8E1Tq9Ex5yeCDKTuTkxUpD4y4ZO7yAyk7PxzDfiI8QhfAEMb/sLpdaNMV3X947o+77rbNvqutranr9w3u/N44y+ashKm9kuM3tbMQ59Z03bNI1m6H/b2s4N4a695eu93eGJ3qZZox7ojTfY/170zNysiUH2vd6+tnE573C6R+N7uCWsv0o9u3FyJtfOncnN1wfV3d83t1uPsiIza1tjjCXDI5q6KtOZ+HtNrpb0V50JuZJlFT6hk9Po2DlamhzNznbkSIQY4gkLWHigNzpy4h38gd54fxHO3OuNf8a5j+vyTpyiEl4JLsFPCXfgY1tlBSYZYQmZaBwemxE+dApHJbFNNWRoydHPtWVV17U/u+u6qpKQhFH8y0++TpIzubI2G1fyKQuYxmHggIuiroEcybEnecTeVjzQ22h0vKs80BtvL07ge729+zlcYHYJd2+OeWFCwF07EbfoyxeOhcm1OV3NsCG9ecxlw1i5ko+ilCrL8vc9K/zwzSiKX0r161esLf1RAAAAAElFTkSuQmCC;" parent="1" vertex="1">
          <mxGeometry x="161" y="183.78000000000003" width="49" height="42.71" as="geometry" />
        </mxCell>
        <mxCell id="4IOT7YRZeel1PPsYH2Uz-19" value="" style="shape=image;verticalLabelPosition=bottom;labelBackgroundColor=default;verticalAlign=top;aspect=fixed;imageAspect=0;image=data:image/png,iVBORw0KGgoAAAANSUhEUgAAAG0AAABfCAMAAAGik4lUAAAAAXNSR0IArs4c6QAAAARnQU1BAACxjwv8YQUAAAAzUExURQAAAAAAAAAAAAAAAAAAAAAAAAAAAAAAAAAAAAAAAAAAAAAAAAAAAAAAAAAAAAAAAAAAAKMFRskAAAAQdFJOUwAQIDBAUGBwgI+fr7/P3+8jGoKKAAAACXBIWXMAABcRAAAXEQHKJvM/AAAEUElEQVRYR+2Z24KcIAyGRUVBUef9n7YJ/HhA4yg7tdt2v4tdICCnJASmeMsLIOuKiTINcqm02mZDxXHJBmK2MK/XhMxOGvPI3QJN57YNpaeiQy7IVoP0VDHLI9KJlMYaGV8vU8RRB2n6KYXsbQZ8gBhRFKERrZk3wEMFfRmSpaNMSAJfP0I5FAcGtCB6WgHKrgjlCygGKATbOXOJ9SMqLad9YYQLZtIBMdqPqK+R/ZPUfpABjTKA0ghKAyiLoNTDs+pQ3tOqrb/KvbVIt5ROZWtkWbEdKUojKPXwWNg2iIn7Tb/ZhV1VvId5Y1FnY1lsn+CxhI1/OdJElX5zDOqg2UbyxlJvx0KGvCK1t6IwXGG02cb8vajabmDPTas+dOaCaa180Y6tm1ijUEMCXmoH7TgUcc9Ezk4aMO0wG9Ehqt9qw5pUa1Iy2qmS/kjtUitMkeZA847+eQebycm6TKKMtvbBdfFzz10X1NrBc6Po4RA22bNxGqRTDNnH374ujA52nsJm9MO/i9LWjX7rp7G3jeRpVyh7rCkW8kNOLUFUsRjxCDhUS4FYYhNArIH8GLEV+Q1xnE6x+JBgjKVJ/PRg/ZVCSbZKVWKst4NNGMmU8PEpOcJVbRHPoCAlCGVQLQVSEVRLgfQA42WoluJrHNL4eATVUraR3A5xv89CHFElCzIsjs2PmOhoEbXEa0OhfVg5M9iwj/XJkkjmqPgARDrFf5xio42aqKqNOoqSFEhFUC0FUhFUS4H0gMbvKaqlhCpHnDZ7oyX7CwA4dV1nWuKvKgcMpAlBGfZED9p0S2MK2JugVe3Jkjgh3ONo791KkprMastKEo8FFKVAKoJqKZCKoFoKpAfoPC2x/gkL1VKkYBuI+y25BI/o5xlBv8RrzYqy6eJekZK0klL98MP/iiKQ/DSqbh3eVE4Yt2dwBnX/tpM9fc5tT70J008RXaNA/K0glwsXnDXSa8E1Tq9Ex5yeCDKTuTkxUpD4y4ZO7yAyk7PxzDfiI8QhfAEMb/sLpdaNMV3X947o+77rbNvqutranr9w3u/N44y+ashKm9kuM3tbMQ59Z03bNI1m6H/b2s4N4a695eu93eGJ3qZZox7ojTfY/170zNysiUH2vd6+tnE573C6R+N7uCWsv0o9u3FyJtfOncnN1wfV3d83t1uPsiIza1tjjCXDI5q6KtOZ+HtNrpb0V50JuZJlFT6hk9Po2DlamhzNznbkSIQY4gkLWHigNzpy4h38gd54fxHO3OuNf8a5j+vyTpyiEl4JLsFPCXfgY1tlBSYZYQmZaBwemxE+dApHJbFNNWRoydHPtWVV17U/u+u6qpKQhFH8y0++TpIzubI2G1fyKQuYxmHggIuiroEcybEnecTeVjzQ22h0vKs80BtvL07ge729+zlcYHYJd2+OeWFCwF07EbfoyxeOhcm1OV3NsCG9ecxlw1i5ko+ilCrL8vc9K/zwzSiKX0r161esLf1RAAAAAElFTkSuQmCC;" parent="1" vertex="1">
          <mxGeometry x="180" y="170.00000000000003" width="49" height="42.71" as="geometry" />
        </mxCell>
        <mxCell id="4IOT7YRZeel1PPsYH2Uz-20" value="" style="shape=image;verticalLabelPosition=bottom;labelBackgroundColor=default;verticalAlign=top;aspect=fixed;imageAspect=0;image=data:image/png,iVBORw0KGgoAAAANSUhEUgAAADwAAAA3CAYAAAEnPBknAAAAAXNSR0IArs4c6QAAAARnQU1BAACxjwv8YQUAAAAJcEhZcwAAFxEAABcRAcom8z8AAA69SURBVFhH3VkJcJXVFQ6rrCIgq9VGKG6ViqC2Wjtl0Soyo53OtLVI3VDUqU7HIgQQLZsWFKtA2AVFIBAEE2RLAgETVsOShoAkJmERJASS8F7evv2n55z/3v/968uL0E6nX+bk/Xc999x77rnnnpsCiIw1a+gH5s1Lh0gkwt/Ry/v5lyu0uqYNJ+QvKFHw7+jJn1yB8MsHf8UVQkfHgBL4XuSKCu7JqZyQoNaWHtxv3Qzhko2Qnp4Oc+fOFbmyh0k3coKwePFi/l24cCH/qhWwNaGwsBBWrVrF37KixoKwePES8aUipVmLlhYReYA57eIt9QUSKcTT/VZctHDlLLVl7rViUNNu1wZGg6mrq+PvlNCRz8Gz6AnwzH2IC2KxGM7/PJ7/FNcbXcA9vjvXlCLQ7+7du9VuU1JSeEAtW1/DhYSU5i20QUrIaQ58dQunNWk6XNsJasVYrmnThhtSp4TIqY/4N1wxHfy7+vI3QWss8bMBd3NDj9fH6fCpDzWOvm2tIXa5iPMJ6mzwdMXJnzGGC80IHnsVfFtbgn+bKo6FsxLya9O6ZcsWnhw5UWZYOEs0NDRwo/nz53M6Go1qHck8C+emgBvX1NTAnj17OEOCNDA9XeUgEavdKb5UpFRUVvLsEj01ahRnfnPihGGpCP6c9tqsS6QUFu7WGg8YOIgz23fsaEgTSFEtjenf6NEvwNBhD3EGQXZGCBT+lH8J/vzeEL2QJVI2E0YqSg3bdejIaeaWq36bYWh86NBhltMg6/Zu2nCDBx/HWQuKEmwcLl7P6+tK6w6BvPdEthH+nA5aB0QSWmONJv1IFBmhBM/zbqKJk9DGFz1fynZK7UC1V7SxpVatXLmS8/SwTJhr3PXg0m1+oi+//JLTZnBj17iu4E6Ly6IE3NqmIFNK8Hq9bC2lXhNSwqWbNXk9sx8U2apZpcbUiECN5EgkmLNsHL1QxpkEc8Xs7GxOL1q0SOTYyNwUaI1fHPMSKwdpWPOWraBz5y6iJA7a01RHqi99BwJxpZGINZSgbrRBneiBStYdl7cDZgZEqQpmvOKzlVpneurbT7WwEq+PHaupPlGzFq1ESRxKqAb8edcZFJJJp1sETWLqqKXokIikqauvF6UAJUePQjNxDBC1wFn5IiubyyLnjLoXLHpMlVQy3d4FIqeNNimpdRo8dJjGkIiknjJ1GpcpUT9K2ImnUwmrx00ysGWsKAqMS0szrKckyotEVdeFQCeHYUpzOkK4bIIodQYzjlTuBu9nz4Ev4yWInNyP66SebxIejwf++OSTImVF6OjzBktlpO7gQ4vt22SUkVMWI6Qj17huECnP58qNgaY6UHinOvXmAdgpV7SmDDzzfgMNMweBa2xncL95k3UQk38M/lUvcCMzli1bxqZm3759IscIJVwPiq9KpFTYrrFE5NsC9IC66QaQCqE9cb9Nb5Ikffzxx7i3jXvWDhbGsUtVoPhdIqUidrES3BN7gf+LNzgdDAYtTFesWMFletTjdnS5jH1JMOOYt45NvHlqA9tncyVCzHVefJFTPs/AlCy7HjTt+nIiWg49mHGkAqcUGRkYI3k+GsKV9KiqqmKDLTvUHxsSdktAg9VDm2olEgLPnGHgmtgbGqb3h2iV0SOSyMvL4+NH0ubNm0WJEeQJ03qTpAcPHhS5cSRUrv8kDIy3bN0KazPXgYJ/djj+zQmctiUaZWdvFCVWKP7vIHopz3IqSTBjUn8yhWSDieh75arVXEGPJ0eONJjPwUOGiRIjAnsGiRMKj0W0WuFvXhclcTDjm1JvNnRIRMzJZutx7XWdDXUef+K3oiSOyJlFKkO91UJLpnjLRQ0VzNjpMDh77hxXktDXa96qNU+3GYHddxmZCgqVTRQ1VDBjPUNJxERvgXbt2mU4j83lEnwW2zCOnDUaGGa8EX1BvTQtUJr7fxn33ggdO12nlTO1insf4W+niy9UqtAl4fboGKOLbAYzJuzbv5+vfd179oKZs2aJXBWkvfIqLQeWNkGduhgaf9+2+GWVEayG4L4H2QsJHvkDZlh3icbYCZcuXTLMBhGlJQJFw1mqIP42BQkZHzjwtZUprvPWrdvUCkqEXR51SrtDqHikmp8EbBmXl38Lt9x6m4UpTfHIp9S7ISGMmmpYS6L8G0HxGLeOHRwlJn952owZkNKsOTOk3+dGjxalEopOYh3ldQH/rp9AuGom3kvip5oezNiz9PfgW/MyHoPv49lbwQV6rFqdAbl520XKBCWMDl9rK3MmNCRowXw5bSH0r2dEAxXMOH4Wp6LbcyO4/tYJvPNHQOyy0YA4AyXf0VtlZDsANCDH/iLqqjAxNtGEXuiLPcIVk0H45IcoXTujM5+YMd4X7RgLcqX1wNPmMjewA92p9IjWFaDpHIjT3JX3OK15qPQlUaqCGftWvcjehntKP2ZiyxydPgj7uZEeJ06c4Jjg6tWrHf0rxX8KLdpFkVLBjPVQfPXgz57AjCwD4Et/3AoVFBRol2Ei6ZWYfTA7WBjr4flwsMEXc02g67vKuLy83MCUiJy84uJiLm8MCRkT/Jmvqcwnp2peJ62p2dMkpnTVSRYGxrGGCxCrOy1ScTS893MO0EisXbvWwJS8ShkklaAjk/LC4bDIMUJj7J52BzrtvXkdKYYau1QpShCoVJ6PVDdHBlv1jDdt2sRlEhs3buTB0FJQXdIFM5ixd+HjRiWi9RTxG4nIGdVFLSsrMzCljvUuktnvJlqwYAGfcnowYzsD4kLjobiruZIen3zyiaFTmnY91qxZYyiXlJ9vvHEyY/ekG2wY9wQlaFUWvTT0XVQUjwkTtqKLrGcoyVyPGQcL0tlGxxn3gYZ37+IKZujvRTSFoVBIlKigCx0ZFD1TSps9Vk25QoWLwP33fqxc3uXOt/85c+ZohoLW12wuCbSt6I1iyZIlPPXmwRE0xv9t/O8wpo0/+4MP4JbbbmfXRyP0tYaPGMH3q2Tx9pQpxj5MdM+994FXPGQkg5ivkiNKgYI78fjtAL7cjhxDCxY9in77crTm9sZKD4PA77zzrjoY3YXBTFTerUdPKD12TLSyx8WLF9VJa9bMsZ9HHh1uq5tmUMQ7eGAoCinCoyYfg2k7Hv3oYYWr7MPuEprAubm5mj9pN0A90WDvuLM/uN1u0dqK3Lw8aN2mLceBze3lRfi5580+qw1w1QJfP8xRMltBzYSTEvnOGG3RQxM4M3MdD0IfvnUiqtcPvf3z5+0dZvJ/7ho4iOvZtkcN6tqtO5w8eVK0cAb5S4HdA9hHthXQTDgxobJJorUVmsAUl77vF/c7DlKSXJ0ZqP52oLP65VdeSdgPlb0wZgzXlVDwdqkEjc6gROTsp3zNpbuZrZCScE8HCvujY3lGtLTCYrQWoN3v0rUrD4oJVyMlpZmWHnTPPewHOOHpZ57lejQxTsIOGDjQ4iUFS57FlbwbHR0H7xiv4MEDg1FwvCuwsboeqZt6RcttzxoQrphKNdUGDrAIrEddXT3syN8JBw8dEjnOOH3qNNx6u2rZ7QQlorLUPn0tWyFS/TkOuBMPOlBwB7qbR0WJA0K16A1uh+jFLXiz+7oREY1IKHAyOF9dDcMfG8HCJDJ4VE7Bldpa48pGa3ep6kgrxqrZA61te7zPjsRC9Y3uauIHCUyv6VOnToPevW9gQZzUl4ijCFhn+ox3ROs4YvV7wb/zRlzZrvF9qBEJ3hYC+x7AlcwVLa4cSQtMzuGevXvZKRky7GE+wkgQIrujp3mLllw2ctTT4HI4vqK1+eDPv0HdhxaBdYRnLBkten0PH38NYu7Dooem44pVmo6gjIw18OshQ7UJaNe+A07MPw1W2BGxIIRPjAfftrYoXCNWWBIbKjyXifCbYoeh4j9xkCNc/iZEL2SJzq3QBA4fzoTLf23H95U49eIH9Ibp6MqhZx/IToNI6WYcZOPeUVOhRFwQOv46riRZ3EZWPBHROWyK7ugRF7h4vXOoSU8U+0rrwXERuqQHd86xPIpdKaK1OyDARxAJT2+TzjEzC111gc00OZXv7RwWyZ3JAYOrCcV3CkKVsyCw514UHveyTpVtX4uTFphVur26eqjGHAEx3JKToDdv4knzrfgzKN5a0XNyoLOZ3un2798PPl8jN6jwZTx/iyDy/WoIV/4DXcnxECh6hL2swK6+mHZ+o7c1Wko4gBu/DI1JHq+ad8EIFKiPGl+kiaCwrp3AkkhwVPnAlmmiR3tEIhF+3aZQgv7lk74p1LB8+XJ+vKyoqODQwtWArcCJED1/DI3XBA6wujnA6iQ8ThCutmfx79DIRUTrOGglSShzKMpMNBlULyMjg19h6fHbHD9pCpossB6xy2fBt3I0Ck572PjO7RrfAzxzHuLgrx41NTW8cnZv2ZJoEkjIdevWOd7IfiiuSGAJstK+T0epgpPAqPae2Q+gT2y8/ZBqkqCJVpUEXb9+PXi9V9+tJNgKHDlbDP4NY6EBB90woz80vDsAPOnDIVgwH72cC6KWFWT46LWEjF2kap/IVUHCkno6CUv5FKE7fvy4aGEF7eMjR47wyi9btgyWLl3K2pKVlcWR2mRU3SBwBI2U++2+Ym/G1VMjVFuKW3sWPoGqav8CE9q7DAJZ40VKhVRj87OBJMqnwZ8zPYpLUPiRjBeFLp0mjPqg+CjZhkTQBI6eKkKh+iR1FNGLgGfeo7ik1sdxM8i9pKgxqardQOV+pRcjJ5CwTu3NRDHcw4edfW1N4HBJFq5e4rc1jSb2gob3cY/WnxWtnUGrS6vntLo0QJoQJ1CQjyx0IiOnJ6q3Y8cO0doKTeBY/XcoxP3oPzuos47ouPFnvipaJgbtOae9K1WZIpyJQK9oNDHm9mYiPhSFv3DB2c4Y9rCCbqF/7auqtaV9TOrNr2lI9O40nlzPVLyZrBctGgepI+0tEthMpKYbNmxwfPzSg56JMjMzuS9aRZosSZSmCcnJyWm0L4PAeighP1va4FdzIXTgU4jVVPygW9KZM2egpKQESktLLUT5VN5UR4KMWHV1NVvm2tpa9tiShaPA/58A+Dchyp6/zaV/WQAAAABJRU5ErkJggg==;" parent="1" vertex="1">
          <mxGeometry x="210" y="160" width="30" height="27.5" as="geometry" />
        </mxCell>
        <mxCell id="4IOT7YRZeel1PPsYH2Uz-21" value="" style="shape=image;verticalLabelPosition=bottom;labelBackgroundColor=default;verticalAlign=top;aspect=fixed;imageAspect=0;image=data:image/png,iVBORw0KGgoAAAANSUhEUgAAAD8AAABDCAYAAAFcuO3zAAAAAXNSR0IArs4c6QAAAARnQU1BAACxjwv8YQUAAAAJcEhZcwAAFxEAABcRAcom8z8AABpJSURBVGhD7ZsHfM3n98fvvRkEpTUqRmiN2lIjCbFqVWm1FC1+tKq0Sn/VoUZspXZkE6t2JGqvELOE2gRRsidZZCd3vv/P93u/JGkSotr/eP3+n75Ocz3fc895zvk+45znPFfFM1CEId+3FsbUumStepmkzDy57QlDWLvvWeBSi4A9vYmy/prrN8yPnjDY97RWPpmxJNCChPdqmhmMRh1b5qnlB4/R3FuFyy6bAgmGMA2R3bpDppZOR8OxmeFMniGvaCeZVZPpvVbS8OM1rDxyS256wnDgwAHOnz/PkiVLuHr1KgaDQW4vKqEEPAfD/auY8r7C+CAa7cFflUaFwaBP5vOPN+KxxxpDqCPRFi5cmNmvgKHb5qYc7vWq3CDBZNLz/RKN/Flm8NygwnCiaHfquZgdJ7ea4pyI7q8mbW4gcXl6XprVlZpznAoYJOi/LsfkhlWp03YuToFhSmshhgsXLpCRkYGfnx+ZmZlKayGG0vBMhsiMRHiUovyrOIoJSOrly4MRluS6lyM/oDGGKzboL9uQu84OtHpiEjwVTjOKCHjfR8XtWyocA2L5MXCv0lqAaKvx2O74hnr7IkhfOF9ueyLgUXYCjaZq2LW2CplTayqtxRFxTUXeXQ1u2yvK/y7Sg/V+KvR+GuLe12DMyldaC9DabSBN/HrQfFdPOrrWlduK+cAQJoTssyDMzoblr4/hK9tPqNNmDh2OhNFBvL+K47YxZvUZhbsEARKkd2nQa9kxfw8Lh26m80AfjsWm8yAxgblz5ypcZpQo4DGk2ZOcnMxnn31GcHDwk1lUGE8VUBY8XYDxPv5hQRjiw5WG4ihRQP6GVuiDvoc08TjrEtqzG8hZ34ATfxQfkUUEmMRUinNaTK6nNXlu1ujECJRGofaMDXnbenA9PoOHqeYB9BhFBGSEeXPbfjmDF0/Cy78CGza9JgbNYLQnK8jLwO2XPmTHZZUYhYHKNwoJOHb3F8Zu1tDMvScO28PFsqA8UJC34RLTZw2g7j4/hoxcqLQWEtB7exs6r61NbH87Iq9dVFqLwhQuFGzUkNj3FfR3r8ltTwS0mqmiqYslyUOLLtKFoUv6lsjrFhwJtOJyhJvc9kSAtHB5CCGGnUKAMUNpLYremxrQQszYGrPEUE/aI7c9EXD6/L+4F6xB568isl1lpbUoqi/uQrNdPWjg1UhpKSRAgiFMjSFabCPOamJ6rkQfkUpulpY1YQ9xOBRK+ekdKO/iTN2fuinf+JMAU9YODMJRsfZqYps148uXh1CtzWxe6+Eqz8QORyKw/PQXhduMIgJkJF3GMOUVggZWY2rv1dQQU7lOm7niy+E0Ea/yzygm4N133zV/iDmP+5hfmT14A8Mn+KEV42Lo0I9xd3c3P1dQTIBJjKCAgAA++OADAgMDGTx4sLw+fPrppzRs2FDhKkBxExScOnWKUaNGceTIEVxcXJTW4ihVQFnxwgJeFM/fAUM6+sghYnYuh4cqdFkDSch5SNpn7UkeovhYbyRjTuluK4yydSBPK+K0mvJuKZOrCmPIWozhbdD/Xh79RbGTXKlA7rYGZHioyJCex5xE9eVu3px/ShFSMp7agbxfbxHn4EqcowcxdV/H6K0hz92Krd9ocPeyxnuliqsHrDFeKScWTtGRa9Y8/H4qceVmE2c9g/tLJxIRIab2PRWp9yeINUIRXAildMBIYnQVYsJVxN5V0dtzPk47InHcEU29mXZ4HnciLeuuwlsI+RmkfbyZaNUUeQG+WMGFejt9sd3jSq2hqzjXdwWGqDSF2YwSOzDu0BCclqnpsFxNf3cNE791pO1MX4YEJigcZUD2WLadUVFtvQrbX1TUXNkVl66vkjTADpOxwBXFOpCty6KtVy0c3OvQ1a8lHXtUInlgPZLesxWOKb4vPw3GhJ4g1jbC1ZhuW4iNwJq4fnXJP+KncJTQgZz8ZLyCyuF+qBKeK63YtVoIOCcEXKimcJQd04JG8Yan2Gi8VDT5SXjStxw+xytwPW6lwlHKK1jrXxOvzSpWzFFxWXxZK4KuPLHhZG5cpHA8G/fSw2jgW40Wa6rTYlMzGq9tTe3ZFnReoSJXK4JWBSUPQu1VEQeKqSRSFMM9scfc0hDVWy32GRVx787AEFl0IBVGjnhL/bZ7UE7sPVJKI+0/td0602x3D5rsfIs1d7conGaU3AEJhmSxwVnJeZIhQkPKAg0RTqITXbsR8/Ya4nv7cKTtHObX/ZxGjcbTbMZ+HKQ9SyGnQ7exc/+Bl6Z1Q/O2Pap+A9kfEqcIL0DpHXiMjA1ifosVb6xYbP6tIfOTGlxqU4WvXqnFd2/OZGJPb6pKe55IP2rbz6b5j7ufdMJ++1U0I1YzzOOEIqw4nt0BgZycXIxaEXAHiXho3mvcHFWNSW80EhuuLy69fGjbYSG1RQdqiQ68Mc6PDkcjmXkjiVSdicSEeJGSlrACKXhmB+7cucPkyZPp378/H374Ic2bN+fy5Su4e7hz8dIFdDo9eXl5gi+Uffv2kp2VxaBBgxg9ejRXrlzho48+YtOmTYq04iiTBx5D2p8l9OjRg+zsbLlzW7duZdeuXXz55Zd4enqKqGEo586d4+DBg2zfvr3EmL4wnqsD/wT+szvwf1S5SSf+l8Oyq1vJ1uehu33B3P4ceG7lhujRmPKjMaVXEim9irC0M+gibxP/lg35J3bJPHkH9qMLuSF/fhrKrNxw9Ev5uCx/Q2tMSWcxifhPigFJX40p5w+0Ny6Sv/NtMr3Lk7tlLLnxiQRcile+XTKerVxrwHh9pRzzPY7/tCtrY8rdh/6ClYj9LNBfEpvTtdaku1nI8V/e1tZ84fcHqvG7+SMxRxFUHE9Vnrv5CgnOnkS17kbOCvNRTZ7UAY9KaC++9uTIRibxOXtjRfLW1UV/+xD5ehNn7twmOekzdNo7isSiKF25yHcS3pSCzhXEtZlI5mixBXtacWOuJZ6TLfFYqWbTegvyLkjKpcDTBt2510hsIL5jNZMHTV2Jum1LhAg6o8JFUFrCwVSpyvO0J4ibOJ54+8WsafkzA5Zt48efPmTp4vJ4H7fBZ30l/APacfH0QEz3+mC4XZ+Evg2IVs+QA85o9XRCZ1TlyHUVB85WIP49NwypWYp0M0pUnpPhRpyIdiNFwLHzgC32W8NxDAin7aazOC204VLUUrF7FV+/tUEhxL88m2jNNOLULnwxfj22OyZj63+cQZ3mkTljn8JpRjHlJvHfmC01GSRivFVBKhbtV+O45RiO/mE4+N/jduJNhbNkmHK03G+8lITOA6m3dSy1d07H7sg9qi09QXjvDzGmJSmcJSiPFPGZk8dLIszW0GapmpVu1th/+QPt113ifGKuwvUsCAXxVrQWsaKtiA9tN5an7vCupAyoQ+4OL4WnBOUbQ1bSZWtTuq6vT6eF1ZnYoTL33q9DwMguCkfZYEr9lqgbarps0dBe0Ol+GhJEuP7wm14KRwnKfzw6lnZutei4uiGdVjTG662qJHxgR/6Ooiefz4JJF4tRjHQi1MKdGrEGSIc9NUn6sJTTEgnf+XWhyTQLGk/T8M7il8hwseTBEBWG8KMKRxlhMpBy24o/rliQIqLj5BA13jsq4rnrJXlcSSimfM+1/ngdqYTHHpFcLFGTGqTBeEb0Pu2AwlE26PT5vCFWuyYiN5CSC6epGryPVWLV6WpPztKKKT96dhQeG1V4ii+umCbi+PUa9PstMEWK7PQ5EBwbREMhQ6pnNHdXUWuKhrZLrdhw9jWFowTld8L9cBcj1HO1GOkzVeSLjEa3XaTG31TAlFfW0Q4fH/xAZDQiq1lnR4vtnagzz4bqMy3YfvFjhaME5Xn5qaz1s+DQQQtyhMu121TkrFFzt7GKtLmLFa6nY+/NY1Sa50Q972602NWLZjt70HR7Z6rNseZceMHrK6ZcRoKDnIVKJ236W2rSfS2IcBSZTIcqPHI/qzCVjMPx2ZSfZm9OpaY7U3m2M022d5fPBdvv64feKAUhZpSo3JQfKh+4y2mUoEx/SblYbjtZENPTncSB68k9dg+Ss0X+rSVNbLtX0vIYHhyHY2AEDVcvFzlcO7kDNjOdqfCjIzV/as+CE76KBjNKtlzAmDSmoAPCAxHOEgnlvT2IfXsVd99yw6vRv/nXq8OpP8CLNluuiOwlXEmhImjpt4eqP7+P1bB2qHs60nKyhyK5AKUql2I0Y2wLoVy4/44FmV9puFtbbI8NXuG6/SDGVR3G+Fc+onWTidRpN4/arWZhv/j4k1JEh8Bwmvqex3rUBsqP3khEUkH16DFKVy7BpMcY3xzdMjHiJwj6rgpp74jcrYoV/35tGNOE9c0dFlBX5G5SAlnnzXmK4jA6Ci9U/d6fyp9v5I/4R4rAoni6cgXGX0agGy+CiZmvop9Rkx/qVWRK++FM7bWSzh0Xy4mjWfkc2vtfl5U7Cg84/nyY5IzSp2eZlD/KEgJiLmFa1ReT6MDU1yswpdNkodyHb3p4UlOkzrXbiNRZ/HU4eJf3T8VwWIndkh48kP+WhGcqj46OplIlESYLyKtiVjLxh7bi++1+lo30Y+FHGxn4/kp6D1vLfN+zxOWKVyUCjYDtfvTr14933nlHZLYF06swnqm8b9+++PgIC7/5Bjs7O7kEOWv2HPbs3U1Cgvko7f79RIKDz3LixDHWrVsn80gp9t69e+nTp89fUy59STr7Tk9Plz3Qs2dPwsLCcHV1JSIigvfee08ovs/nn38uF5AXLFggl7++++47vv76a/z9/RVJJaNM71zCtWvXOHnyJHv27JGr1BJGjhwp/5VqbfPmzWPYsGHk5+fLhwoSgoKC5L+loczKH0Oq9vr6+jJt2jSWLl0qt40dO5aJEyeyfPly9Hq9TGXBcyv/O/H/yv8j8T9uvBRPZulyyBUx5383/huM12HKOIEx/ZDYJMVia4wX8dJyTNn/gvwfCU3ZwYRTy3ALCSA9JZ78tfNIndCdjIVj0UcVze5NYhUxiaXs78I/Y3xOMsaooxhD1mO87oXh2lcYpHKEKUYYPdh8kUCiVEEZ0sUd8y0MY0YmWd5TSRnbkUdz/oXu3BZ0N7zRXVmEIWQbmXMnkezcHu3h/TL/i+LvNf5hGPoDQ8lzMxcQc1eozeQq1fRewrB/uMjVN2DK7YUppaJIKkVaFlIV461WgtpivNMVU/x3YqQEoQueRrZXOTJWqMhwMxcc837tJnSEsOlyCi3nn6Te9CNM+vUmqdklb9/PwgsZLx1K5AfdJcf1DFmLA8laNJycZVbkepgPsoqQmyX5ni9jOjZGREsuGK/VQn+pfMHh1hMqh/6CNTl+1jxaqJENTxcpYKanmvzDYtRkRrDlUhKtfjpJ/enHmbErlLQs6ein9JpDafjLxusuxpLcZzVxby4jtr0rse2WEdG4PxHNbHg4SU2ej3CCYni2mzWxC624OMeK4x7lOLGjHBf3lSP2pA35lypgLHzC95iuWGO40RDd+SXCuSt5NNaL9LE7yHI5gl7Ey6b0O6Q//IKE6FeIFOmOdAB3P74reXkFF5mehb9sfH7gHRKd3Ilr60acozsJjm7EtHPlWosRhHzVlHDXqiQtK0fUz1b88q0G1x8t8Fhng6e/De4ikXf3UrHCU4XPKhW3AqWytg2Gy9ZiNFgJwwVdtuTRUluiXx1lPvBTT3tCUapp3GzendCt1kRHqIiVKFxFTLglCUe68HD5r2hD7is9LR3PZbxef5+HKT8SH9tcRLnVCTtdlTszGxA6/GNc3/PE+ZMA7D0u0m5HFO38wmi95hgt5zTl83UVcAsqh+/pV9n1e1/OXZnF3Xv+JCQGk5oWSkZGNIacSLFQhmDKPInp4Wr0YpF88O6nxFhOJlo11XzaqVCMZjpR5f7N0bHvMGlffXrvsKFtgC1vbezHV0Mmc/htV1KGryVn1zX5dkRpKLPxWblhXAjtyr5gFYfOq7lwXS17Oy5CzeJDKlp4D8Bx20UcA6Llg0zHgEjaioz6jQW9GLN5ENdijimSng/GhEdkzQ/ifoPFxEh3DDQziVPNxKf5Qlq6H8c2KAa7oGTsjqdSNzAK2/kHqdVrkchvl5AyYgM5B24KIcrh1J9QJuOztJksOPUtjq7leXOxinZL1NgL6uKuxv2QBp8gFQ6+/WknjHfamYBDQDgOwgETT98nJvP5rg6UCp2RvH0HyFzehZzASswKLE+tDdZU/8UK2w0VqbWpKXUCvsTu0DFe9vFnwKBuRPWpQdoYR3TXTitCiqJMxp+KPcKHu7vhvL4+zl6v0NHVEqflwuBFKtqOUTPvnZcIfteO77vVw6lLS9qM+QG3M2HkGEr2+Ash7yzE2RMXomLiPg11f1FTQ7rosUFFTYlmqxjUsyLn+tWR724kvluDzMXjMD58jmrEYxhEPr7o/HS6bm1O1y3NeGtbS5m6BbSi26IGtHEqx6SulYkbUJ/UgYL624otT2xnKc9xW+U5Yco6gCm6Pohpl31HQ+hVC85f1HDjuoakwxpSPtEQ39OGhPfrkPhBHVJHtkZ7TkSYf8IzjU/NSuaT9W9Tb7KaxlMtaeJiRZPp1rRaWh2HVY0YNb42Z3u+QlKPysR2q0TKe7XQ/Wa+aPiPwSRC3OTR8nmm5AD5hk2EQpEaDLfUpPhacW3YKxzqW5VDg2sQG1j0qFDCM43Pyktk67kefLtVzXDf8nzgWY5BXuUZvcKKn8S8D/azQHtcOsMWQchuFYbg2nIs/89Cz8lb3+Cy04JRW1QM26Rh9BYNU3dq8N1vyVo/NV7bLPE+WhGvUxXxPlmZS9GuYt0ruvI/0/h8bQYHLg7GY5clXgGC/AStFnv2PA0rZqrZLBwQ+6sG0wkRqp6ywBRshSlxlfLtfwbJ2Yl8tqc3r4vor5l0+C+Rj/jsoab+NDXVvlbTdK41E/wq4BlUgTVnbAm9X/zSxzONlxB8dTY+m8vhKVUsJPJW4yEMX+GiYvciNQ83qtH5qdBuU6Pfo0J/WsTpSSXfBH5hiBx4efBkmnlpaCqCpOYiWJLJx5IWq2rw+uIa1JplSc05ltSeY8FHay3Yct6R++nF+1Mm4x+kXGHb/ja4idXUXRjvul6Nr5uaMys0pG8Sxm433wnTBqhIm6Imwl5FwhBntLfM15z/LmTlZ7Hogg8ttvakybaOtAhwpsWOTjQXCU/znb1otrs3zbZ3FiPCjtrCAdVmqGmzxJK9N34SPit+qFYm4yVvZyV5kHijBvevqsgKFUNcBDfGu+JNn7VAd8A85zOWaojqriastXCAg5qYHs6krzqOIbns5aTScCr8Mt1XjsLaxRHraR3lO2wVZzpTdUEn6q/qKozuLleApCJMc6kaFPAWr/9iz5hDY4h9FK1IKYqyGS/BpMWU5oIhQsTghQo3Uu1EugdniJFGgQXRfYThUhXJWVAnK6K6DiGuny8p3+0l92QYxuyyHUYYhMPjsrW4/5FG/zMPaOa3k8pz3i4o+hSm6ZIjOmLr2oVm/t3FSOhBI//ODBYZ5LXUEEVicZTdeBkmjOlrMEbVLuoAQcZokbP/ZkH8CAsi2ppvvkd2tiCyWxe5oBTTa5UYCV7E9vLm/oB1JH8RQPz0/USJcPTagn24Lz7I5MOhjL+UwAfBcXQKipQvDToeVuo9RyJpv+8Kr/suocq8vsJgR+GItsL49pT/sR1Wn7VC0/8NNO80wXJoZ/otX8it+NKLFBKe03gzTLlnMcZ3VBygLnBAjJpcseInfGxBWHMx/FuoiGjVlGhHkaB0nSEMd+dKl+V4vzGRCVWH8kWVIUx4eQgdqg2hhmir1Xo2tVvNpkF/L+xdTylGK8Y/oXD5/mCHw/ew9z9F9UnLsBo8CashLlgOW0r1LzYyb9d18p+S0DzGXzJehjQNMrcLg9944gT9fg26yYLGiXVhuIbELmLYN6lMlF1l7tpVZH31l/myUhvGVRnE+GpD+bbBeCa0n0sLh/lUazu3oMgmlZxazOI14ax2Gy/TISiiqAOOiNxh721sZ+3DetQ6LD5Zi/Wn6/jI7TihpRTiSsJfN/4xRLRl0u7CcKEruqnmK6i6CWLrm1ge0/Qa8FMtDDNtOTOoOt/WtmHS6zWY7Pg5U/usw+VtXyb18Mbe6Wf5euoT4xUHSNR45C847rklG1zY+FabLlJxwhaqjd3IxI3nuJeYrnSo7Hhx4wvjUQKmwCUYxcJjnGOHcUZ1UKqZJ4TxP9hVYHLDGkwR00D6DYpUXJzZexVDxFSo324etpLBhY1/cw6Nhq3F4dcQnKS3LYa6kxj2fU7GMOX3OE6HpyqK/xr+NuO3bdvG+PHjCb17z9wg9mQehMLFzeLhp6TPacX6brWZ1Pp9Jr/lxuQePoK8mSJoak9vBnRaRv02c6lpPxvbN2dTq9Us7JwX09E7mJEXEvH44yHnU3JJ0ZkzxZQH91np4yMXP6Xru1Lp8HnxwsZLv+dxc3Ojffv2dOzYUS4VPnr0SK5fbt6yBd81a4lNMB8pafPzyErPJT0pm+TodGJvJXPnfDQ3T0fwx/kYbl1N4HroAyJi0kl9lPvkECY2MpKbN64LmeHyteHu3buzYsUKQkJCZKOlEuWIESPkOurz4IWMlwyXKsFSkVbqyM2bN+U30blzZ6ZMmYKjoyNffPEFkaLzUqdbtmwp8zp3cqZDhw70f7+/XEOVSpqrfFcxcOBA+vR5Wy4CS88lOSdOnJDJwcFBLvZK/G3btsXJyUnm++GHH7h165bcl+fFCxsvVa//XPZOTU2VL31LDsjNzeX333+XfzL222+/KRwiOUlOlh3i5eUlXwqXnCSV4MeNGydXuqUL4VKRefNmMW0EpNK85DipQi4VqiV5j5/9Vfy9C56ClJQUuYPSz5clnD59Wv6Zm2Tg1KlT5bK+dMdAMlb69ZoE6e16eHiwYcMG1q5dKxe+pZEgOUIazpJDpVvxly4V/3HeX8U/YvyzIP3m4MGDB+TkFFz11Wq18vQIDw+XDS1rdf9F8D9i/P8W/AcbD/8FrGn/y3mc7moAAAAASUVORK5CYII=;" parent="1" vertex="1">
          <mxGeometry x="382.16" y="394.79" width="31.6" height="33.61" as="geometry" />
        </mxCell>
        <mxCell id="4IOT7YRZeel1PPsYH2Uz-22" style="edgeStyle=orthogonalEdgeStyle;rounded=0;orthogonalLoop=1;jettySize=auto;html=1;exitX=0.5;exitY=1;exitDx=0;exitDy=0;" parent="1" edge="1">
          <mxGeometry relative="1" as="geometry">
            <mxPoint x="453" y="284" as="sourcePoint" />
            <mxPoint x="453" y="284" as="targetPoint" />
          </mxGeometry>
        </mxCell>
        <mxCell id="4IOT7YRZeel1PPsYH2Uz-24" value="" style="shape=flexArrow;endArrow=classic;html=1;rounded=0;entryX=0.95;entryY=0.517;entryDx=0;entryDy=0;entryPerimeter=0;width=26;endSize=5.67;endWidth=26;fillColor=#6666FF;strokeColor=none;" parent="1" edge="1">
          <mxGeometry width="50" height="50" relative="1" as="geometry">
            <mxPoint x="160.00000000000017" y="304" as="sourcePoint" />
            <mxPoint x="160.02000000000015" y="276" as="targetPoint" />
          </mxGeometry>
        </mxCell>
        <mxCell id="4IOT7YRZeel1PPsYH2Uz-25" value="" style="shape=flexArrow;endArrow=classic;html=1;rounded=0;width=26;endSize=6.42;endWidth=28;fillColor=#6666FF;strokeColor=none;" parent="1" edge="1">
          <mxGeometry width="50" height="50" relative="1" as="geometry">
            <mxPoint x="315" y="443" as="sourcePoint" />
            <mxPoint x="285" y="442.71" as="targetPoint" />
          </mxGeometry>
        </mxCell>
        <mxCell id="4IOT7YRZeel1PPsYH2Uz-26" value="&lt;div style=&quot;&quot;&gt;&lt;/div&gt;&lt;font style=&quot;&quot;&gt;&lt;span style=&quot;&quot;&gt;&lt;font style=&quot;font-size: 13px;&quot;&gt;Identification&amp;nbsp;&lt;/font&gt;&lt;font style=&quot;font-size: 13px;&quot;&gt;Inputs&lt;/font&gt;&lt;/span&gt;&lt;br&gt;&lt;span style=&quot;&quot;&gt;- ID Card&lt;/span&gt;&lt;br&gt;&lt;span style=&quot;font-size: 11px;&quot;&gt;- Consent Form&lt;/span&gt;&lt;br&gt;&lt;span style=&quot;font-size: 11px;&quot;&gt;- OTP/Biometric/QR Code&lt;/span&gt;&lt;br&gt;&lt;br&gt;&lt;/font&gt;" style="text;html=1;strokeColor=none;fillColor=none;align=left;verticalAlign=middle;whiteSpace=wrap;rounded=0;spacing=0;fontStyle=1" parent="1" vertex="1">
          <mxGeometry x="450.6" y="134.46" width="139.4" height="48.75" as="geometry" />
        </mxCell>
        <mxCell id="4IOT7YRZeel1PPsYH2Uz-27" value="&lt;div style=&quot;&quot;&gt;&lt;span style=&quot;font-size: 11px; background-color: initial;&quot;&gt;&amp;nbsp; &amp;nbsp; &amp;nbsp; &amp;nbsp; &amp;nbsp; &lt;/span&gt;&lt;span style=&quot;background-color: initial;&quot;&gt;&lt;font size=&quot;1&quot; style=&quot;&quot;&gt;&lt;span style=&quot;font-size: 13px;&quot;&gt;Identity Verification&lt;/span&gt;&lt;/font&gt;&lt;/span&gt;&lt;/div&gt;&lt;div style=&quot;margin-top: 0pt; margin-bottom: 0pt; margin-left: 0.31in; direction: ltr; unicode-bidi: embed; word-break: normal; font-size: 11px;&quot;&gt;&lt;font style=&quot;font-size: 11px;&quot;&gt;-&lt;font style=&quot;&quot; face=&quot;Calibri&quot;&gt;&lt;span style=&quot;font-size: 12px;&quot;&gt;&amp;nbsp;e-Signet&lt;br&gt;&lt;/span&gt;&lt;/font&gt;&lt;/font&gt;&lt;/div&gt;&lt;div style=&quot;margin-top: 0pt; margin-bottom: 0pt; margin-left: 0.31in; direction: ltr; unicode-bidi: embed; word-break: normal; font-size: 11px;&quot;&gt;&lt;font style=&quot;font-size: 11px;&quot;&gt;&lt;font face=&quot;Calibri&quot;&gt;- MOSIP&lt;/font&gt;&lt;/font&gt;&lt;/div&gt;&lt;div style=&quot;margin-top: 0pt; margin-bottom: 0pt; margin-left: 0.31in; direction: ltr; unicode-bidi: embed; word-break: normal; font-size: 11px;&quot;&gt;&lt;font style=&quot;font-size: 11px;&quot;&gt;&lt;font face=&quot;Calibri&quot;&gt;- National ID&lt;/font&gt;&lt;/font&gt;&lt;/div&gt;&lt;font style=&quot;font-size: 11px;&quot;&gt;&lt;br&gt;&lt;/font&gt;" style="text;html=1;strokeColor=none;fillColor=none;align=left;verticalAlign=middle;whiteSpace=wrap;rounded=0;spacing=0;fontStyle=1" parent="1" vertex="1">
          <mxGeometry x="420" y="410" width="186.24" height="62.01" as="geometry" />
        </mxCell>
        <mxCell id="4IOT7YRZeel1PPsYH2Uz-28" value="&lt;div style=&quot;&quot;&gt;&lt;span style=&quot;background-color: initial;&quot;&gt;&lt;span style=&quot;font-size: 11px;&quot;&gt;&amp;nbsp; &amp;nbsp; &amp;nbsp; &amp;nbsp; &amp;nbsp; &lt;/span&gt;&lt;b style=&quot;&quot;&gt;&lt;font style=&quot;font-size: 13px;&quot;&gt;Intake &lt;/font&gt;&lt;font style=&quot;font-size: 13px;&quot;&gt;&amp;amp; Record&lt;/font&gt;&lt;/b&gt;&lt;/span&gt;&lt;/div&gt;&lt;div style=&quot;margin-top: 0pt; margin-bottom: 0pt; margin-left: 0.31in; direction: ltr; unicode-bidi: embed; word-break: normal;&quot;&gt;&lt;font style=&quot;font-size: 12px;&quot;&gt;-&amp;nbsp;&lt;font style=&quot;font-size: 12px;&quot; face=&quot;Calibri&quot;&gt;&lt;b&gt;Self-Service Portal&lt;/b&gt;&lt;/font&gt;&lt;/font&gt;&lt;/div&gt;&lt;div style=&quot;margin-top: 0pt; margin-bottom: 0pt; margin-left: 0.31in; direction: ltr; unicode-bidi: embed; word-break: normal;&quot;&gt;&lt;font style=&quot;font-size: 12px;&quot;&gt;&lt;font style=&quot;font-size: 12px;&quot; face=&quot;Calibri&quot;&gt;&lt;b&gt;- Mobile Application App&lt;/b&gt;&lt;/font&gt;&lt;/font&gt;&lt;/div&gt;&lt;div style=&quot;margin-top: 0pt; margin-bottom: 0pt; margin-left: 0.31in; direction: ltr; unicode-bidi: embed; word-break: normal;&quot;&gt;&lt;font style=&quot;font-size: 12px;&quot;&gt;&lt;font style=&quot;font-size: 12px;&quot; face=&quot;Calibri&quot;&gt;&lt;b&gt;- API-Based Applications&lt;/b&gt;&lt;/font&gt;&lt;/font&gt;&lt;/div&gt;&lt;font style=&quot;font-size: 12px;&quot;&gt;&lt;br&gt;&lt;/font&gt;" style="text;html=1;strokeColor=none;fillColor=none;align=left;verticalAlign=middle;whiteSpace=wrap;rounded=0;spacing=0;" parent="1" vertex="1">
          <mxGeometry x="35" y="410" width="170" height="70" as="geometry" />
        </mxCell>
        <mxCell id="4IOT7YRZeel1PPsYH2Uz-29" value="&lt;div style=&quot;&quot;&gt;&lt;span style=&quot;font-size: 11px; background-color: initial;&quot;&gt;&amp;nbsp; &amp;nbsp; &amp;nbsp; &amp;nbsp; &amp;nbsp; &lt;/span&gt;&lt;span style=&quot;background-color: initial;&quot;&gt;&lt;font style=&quot;font-size: 13px;&quot;&gt;&lt;b&gt;Registry&lt;/b&gt;&lt;/font&gt;&lt;/span&gt;&lt;/div&gt;&lt;div style=&quot;margin-top: 0pt; margin-bottom: 0pt; margin-left: 0.31in; direction: ltr; unicode-bidi: embed; word-break: normal;&quot;&gt;&lt;font style=&quot;font-size: 12px;&quot;&gt;&lt;b&gt;-&amp;nbsp; &lt;font style=&quot;font-size: 12px;&quot; face=&quot;Calibri&quot;&gt;Applicant Details&lt;/font&gt;&lt;/b&gt;&lt;/font&gt;&lt;/div&gt;&lt;font style=&quot;font-size: 12px;&quot;&gt;&lt;br&gt;&lt;/font&gt;" style="text;html=1;strokeColor=none;fillColor=none;align=left;verticalAlign=middle;whiteSpace=wrap;rounded=0;spacing=0;" parent="1" vertex="1">
          <mxGeometry x="50" y="119" width="140" height="48.75" as="geometry" />
        </mxCell>
        <mxCell id="4IOT7YRZeel1PPsYH2Uz-30" value="&lt;font color=&quot;#ff8000&quot; style=&quot;font-size: 16px;&quot;&gt;&lt;b style=&quot;&quot;&gt;Applicants&lt;/b&gt;&lt;/font&gt;" style="text;html=1;strokeColor=none;fillColor=none;align=center;verticalAlign=middle;whiteSpace=wrap;rounded=0;" parent="1" vertex="1">
          <mxGeometry x="270" y="328.17" width="60" height="30" as="geometry" />
        </mxCell>
        <mxCell id="nAcW2Awi0CvXXOgEEeS_-1" value="" style="shape=image;verticalLabelPosition=bottom;labelBackgroundColor=default;verticalAlign=top;aspect=fixed;imageAspect=0;image=data:image/png,iVBORw0KGgoAAAANSUhEUgAAAGgAAABkCAYAAAEd2UVMAAAAAXNSR0IArs4c6QAAAARnQU1BAACxjwv8YQUAAAAJcEhZcwAAFxEAABcRAcom8z8AABoNSURBVHhe7V0JlxRFtp5/8N6PeOe9AQVEQcR9BXHXObg9HR09o+NTaLqbpdmlRZFdGVlUUEBcQQVxARGEEXTEcd/GHRGlu6pyqX2v+77vZmR1ddHVQNO0DSc/ziWrMzOWGzfixo2IG5F/6HnIIcC82gZzX4rFojhTzher7kSJjD5Rcnu/NE86CRSp7yelTEpKpZKS1TxcUpuW6jPzaht4M7f3K8l++pak312HVE6QMIgI1/XXq3m1DbwZX3e/FJxWCU8800sJ90idBuIL1qg+GsBZeJPY918u0VlXSGTMAD6uzZO9+HZkqw/4eFRSW5+Q1PbVKJROUqpEIfwLaG+ZmLp5tQ3m3U5hXj2+YXjtFObVNpj7UrD3izWmP2TTT5wJp2sF9mFebQNvZr/7l9iTz9YXtRoVC2I1eIKtKSe/uoTH9BMLlTW+fr7kv90t2c/f1vvm1TYwdr+62PcOK1dWwl1yp17Nq23gzcioE/TF7NfvinP/ZUqRGSPEXfq32tljgFDdCeIu+rOk3npSkqisaVTaeGeBfBTT8XaVVVAghHm1DXr3IDCvBuhOmLI9AFqpCnkphvZIoeVHKWZT3oMaMNHVhnmvjOSWx1H1+2lPEF1yB+oWFOG21RJ7fLRE6vqgOZwo7qoJ5u02mOhqw7ynYORh1HqClTX71TviLrhenDkjJbVrrRTZSEHWtPMl0nCylPI5fZcw0dUGX2LgxMaF2h6LbkgDhprOEGvsqZLf/z0qPbR1ZJ8UQj/ruwQ7lcSaifo3yURXGxoKyHyyRRPKfrxZVUzm/fUaWSvIajhJQmNIA8WqHyh2/Un6LGoUAmGiqw3zniK1+THI50SxJp8uJSN8P8ftCVpo1pXiQB/475joakPfrAADUd9FmoYg133AAeQ2Bp13O4LZAF0ZRwXxYaKrDfPeEcNEFyBAbwHazAWmdnYKtq2DwUTZMTpLiFEXo2HJ//YdzKXfvJudwETZMTpKiCZU8tkZYo8dBPsFGgC2GO0xu2GgGjulCpusEibKjlGdUCmXkfDYwVAv/SU8fogkX5otqR3PSGrjQ2JPPcdTP/UDpBi3TYg2mCg7RmVClIM16Qwd0aTR9/Dvasp+8x50HzpFGI3sm/xwhImyY+ClckKZ3RskNLofhhVPexGjiGKrm8Tl+GT5KCmCW3Yf7AxDVKjPNZuQHkyUHcNPiHkKTThNbBRZqVQUSsFqGADtjS4DvS5tzRBkxKIl7IlngfOB+tuHibJjVCYURkTxRbfxT8l8tlVakWhqy3KvdzXjoWI2o9y6i//qGbros/g3YaLsGH5CRAS9aGzRXzRg5rNt2t9kv9wJWXgZ8Ylg7QuD02I6Ye4cTkLjTxW7DjWqUNAIrcaTpAXVmvJgMbIbZ3E52o3jb3DUpYTiT0/R9pLcttIbloCVKO6xMnDAyqtWDAxcw0g8jIrDhA676BCzmlu0GVLvPGtu4jZrYDXBsAzf00WOGEG+dQ+snr5K1tiTJfH8DEm/vVoHKCletz+lo+oYKo0N7osZJIRwhImyY1Qm5INGoTv/OjVAwkwQDbTaOGFFiYxGU6gwk02UHaOjhCpRcFq0WndIGJdWwkTZMQ6W0OHARNkxeiyhAAECBDgIoI/+CzSnN5HJWteACLqkYBHO/Op+mKx1DYfLENngXFRyywpxl9dL7OE/S2z2nzz75cGrJT7/Rokuu0tSrzwkue8/RIC2scGhFoLJWtdwKAyVcjnJfLxF3BnDdTLHhuVAopEWgfEVhtUXaTxFrb8ILD8aZLT+vFUTGNUYpyQ2LZNi0jExdg6Tta6hFkMsTZpFtLXCMGU5d81xjdWI4cSqcZL94UMpYFhYxDuFgjc6YPlzKFJKupLf95Uk1s+V0DiM6hgO4UNg0H2yEcZhod1MezVM1rqGmgxlkhJ9+BaUeF8t8XDTGRhHbfQyTWZBHJAVs2k1wfK/fSuF1p89U9m8o+Y1fud//Uac2VejUCAx2PLu5LMk99MnTKYMP07CZK1rQCQHMFTkssO861CiYARj5ugjd7SfwkNGk5uXSRjjN47XfAnQdNfx24QhEnuqSQoJt5xJSjIOKzvMOca6k8R54Cop7P9en1XDZK1rqGaIyetaXuMgbS/R5hEo+Z+8h0AxGhILCoDjc456LU4MPHgVLPbrJbrgBr06864Xd85IiS29S4pW2ywFq7B9PwY+iJdjxvQbS/SeFtLRkJAfYeyFZpQkGj0yzIWUYtzS+0TqvZckhDYVwiCXmS5grMOqpdXLhPfhZ9InIob2R4ZU8o/ejbFPUu8T/jsma10DIjmAoeSmpaq1qMmizZdIfv+PaPheQ+b8kDv7SrExxqWEIrOukeiLsyX++hKEWyapCkq+ATK/06DMWyvEnn6hMkQtyOnsylGjD5O1rqGaIbJUjFliTz5XqxznM2KLby9PKXjSKEgSmYs0na6aS6fKMRB06nntJy3IbCsk0Iphrs5bQXXbfI9tktUNBcXZg2qG/AI1WesaKhnywWjz+3+Aih6sCbM/YUNPv/eiPmO6ZeZzWSlikMlZPWo61Xac4SPtJ31fpty+byS59UkwdJIy6y5GdTYMaXxHiyGCkXNSLv7EGAlBi7XUoYOEJFpR2lHcy3+3W4puK8yGtnUdZbaKKsG/Ofq2p14glla5HmSoEgVkPL62GeqZ1QvVCcyRQuijIrjaDVDDY0/RpZ9IvUfhxoHtKDJ2oFggfWasCa1yGfRbVCggHyZrXcOhMET4pUetlP50iyTXzYQGvENiC2G7oc9y5l0LGtk5zSVdJ/YcvAubL/PxZjBSKMftw2StazhUhnoSJmtdw/HI0EUmnl4Dk7UAAQIECBAgQIAABwFsuQ4nzH9H+m+Tta7B2IPdBmTI/OoaEH6YyVrXYOI5LBxppjtDjzNEVnyiX3PR2ieFlh+Mm+debw7vCBjueYZyGcl+tk1iz90n0cUYgnPGdNZV4j5whcQ4W7roVkk8NVEy767VOTwfhyrVHmFIZ0Ux9s9+tEmis0eKPf409Q3jnJv6IXFZBWSP6aezrXZdf3HGDhJnxsWS2LJcislohzOrHaFHGMpHfpH46iYwcbJYnCLWtSFOQpqJQ9yPNJyi821kjLOinFyM1Hmuzvaiv0iWqw2/L0Ne4pxwdB6+FZnl6gIyr9LoL/YDV0kcVSv1+hLPV4fOdm8+LsnnZog771pdkdClGK5IjO4j4akXSPpfr2mcneGoMUR2ik6r2HNH6uwpF7zsBlSley+U1D+ekXzrT1JMQSkUilJgdTJh2MaK9q+S/XyrWPOvlRCYser7I44TwNS5kvliu7euVDEPV4mjxhCneOnBxu0pWtrIVPSR29SJs8QVO9MmahMY5czrSw+KNW6QOkUxLjpKqTasYMgPY34fHYbSO58XawJ9OL12El3RgMYdQ4JeBrSUSTFLCqiW6rEKierEIcLrO8g0NzrEN8yTSONJEgZDFiSW3DAfL7SX0FFliHPWUTRkLpeEoMmcuTegVH8pM8Oki06LJN5YAtV9u7gPXi3OA1eKC5UdW/eA5H79po0hXjNJiT0xBgWDwqFCmXC65EM/e4lVodsZYlVJf7lDPWwpGWvcEPQpL5lnzGRJ8nu/Egf9D11GdQmSVVKXVNDWGgaIfd9wyX6722PeUAGa0ho/REJ1A1SpqJQ6QLcypBlG24lvfEhC9/TVfRb0P+ACMsESL7ghiS29QxnQEidDXHKhmjaka7OTz0Y1rFhD5ZoSpEfXSK4POTMvY4LmYRu6nyFk3l1yh/Yf9DhNPDvdPCVKkvpgozKhmQY5k86Cmr5O11ZjC24UXV+di7/nXCupNxabcAiJwqCXMTUmGWK1K8Jc8lli2ubaPQwxQmUoFRO7eYQm7CDhDJRDGaiO0ZWNukbE5RBn1jWS++lTtAd6V/oOxZ5TsV4jv5YVBCm/72uJwMrwqvKpkv/i7XbPNYnuZqgEhiITz9AM04TJVnaGqDb2Qzd7DEGC6a2rPAWB0vczVIlynOYZtaE19XxlKNI4WNLvb9D7hP8Ort3HkF7J0JRz1CLgonH6nefKpUgJuSvHaifJ5zFYClyBowLWdzohgsuUkQlDDUODJP3ui+ZJG7qNIR+lTEKc2Vdphp36gZJ4ZrpmiKvg1ICZD1+DxeD1Ta31J4v9RIPEX/07VPjSA1fAQf4KOCn5wkxV2wwbhu2XeXedl2gFup8hmC70JdCVayTuzrzcWMtU2ehXYhGJPXqXMhyqHyAtaGt0zKcjBpcmI3TIMDvSeLWgWGzj0m7hb2WmpxhitaJjkVoJaCO0qB30HRzbUEp+W8mhcbsLb9K109DovsgomadW9NR4i1nSZzujtzuX9Olg7nesuqyPKtczEkLO83u/FHv6MGQG9hcy4cJAzbfsUWaUKbzH/ii5+THdoufOvsb4/l9m/P+v0H3ArtLlEpt1hdiQdHjSOWW1zY6bLjg+GLe5di9DBD2sEk9P0x6dVYvOFNHH7pZCwlGGmbhe+W7SVV+gQrWPgvopVPgo4O/sv98TFwau+tM1UCn0EENEft83GCpASmCIVgGX9N1FN2Owtw+pHmhYHoz0PVAKWjNCswpVLtUTVc4HE89/8KpYE0+XFgzUWtEO6JsQnnK2pLev1lIvpePeywDfr6ZqcFdI8rXFOsLlkCK9q0JCqMpEPp8/SgyxZHFN7XpBQpOGqpOFEpRABOTOHCHRJ+oltWGBpLau9Ii7TXTHyUrdFp/UXSekVSgEXF+eI/bU81CFoWxgKWTQD/mMl6V4tCTkg1ov8/k2NPYRUMGQUDtPEmhCtC+nEf0RvUWgmpU49qnwIgnj78g4SIVqXfshaDpaCqhyZIO7mHwcdYYIlh59dBIvzIDpcraXSZ0v6IMMgikd0XKY7jFci3ROQtU2+qSxQ2BWbTQptKFHGCL8qsFJk9TWFZJY2SCxRbdIlPNyh+IWQ4L6t+d4rjHRFWOkhE6a8frVjegxhqpB10paDQXrV2NdHwZhtEqrXuOpYIb43Rg6WggYqoaJp9cgYKgaJp5eAzB0sclagAABAgQIECBAgAABAgQIECBAgACdolQqjTDTSgFqAGV0mSmungcS73V7W3sbjniG90jQkwJCWmWqBV0Tq6LfG8e9gPTAgUJePYtK6YQUYpbkW36U7HcfSPajzZLd9bxktq6U9OZH1Y0wtWmJpLcsl+yONZL958uS+/xtye75TD3y1BMpk5RSPsuITQpHF8eFgNgqSD70kHcuyu77t+4GSb25XGKrJog7e6T6a/IYmcjdffRLF/aovkoW6R7cI+l980zv4dp4irj3DpPYI7dJYt0syexaq9679NjlxzyQAW1x6kZmPK+6A8eJgDyHimLMluzn2yW18WGJL7tL3BkjULCDxKYLKF3PxniHh+nmEDpL4T7d0NTHCL/bkTpTeaQ+d3r/hDYh0tGq6XSx54yU6JopkoTAcr98JcU8WqrJV3fgmBcQXRjoOJ/c8bT3zZcp52ptt+q8nTqeM4khFLS3g8dzfrQaTva2JzHMvcPFbr4UdInY0y8Se9I5Yo871XOcRDgeKUSizyF39qjTmP5Nrx1cxw0Wiy57q8ZL5osdnvt5N7SiY0pAeL+NoMbUceYfz4g9+08SpicqvXvUE8gQdyE1DFSnNfu+S8R55HaJr58n6ffXS+6Hj/Rc3SK/NZTLef1UsYBEoJ64RSSblmLc8dwJ0Q+l3nxU4qsaxZ17tdjTzpbI+FP05CG6VHlp+cLqJ6HxQ9X3MvPVTikmXMTZPu+HA7x/jAkIVx4FmEYH7i77GwRAHzK6ZtFjFgVFH7SGAeJMPkNif79Vkq/M1+836XYX48BK4hHc/k6pQj5fPl3ML8QyMWEDDQtDI/fjx5Lc9qS4TzaINfNSzYNuWKqn+5cnKPq4haedK/GXZ0v+ly+1ImiaSONwgDwcQwICc/m9X0gS1pY9Y1j7loI+hi2I6iq2YoxkPnlTPbe0ZTAsyQjEp/L9zqhaYCTc1zjQOtgSk28+Js6ca8q703j1CH3fhMESe/hmNVZoBdK5vhYq0/CB371PQJUZLIPucuhrEs/dKxb0PbfoeduJoFIonHFDxV5wk6Q/3KR7D/0jsPy4yoWNllLiiW48ePPXb7Tg1D319cWS3LBAEhsf0iNV07tf0XMqy2qQ4ShUxFEWMOPjv2xKv9+WeG2RWFPOljCEFGb+1LkflWb8EHHnXS9pmO4lGBG14OeX5AO/e38LYnapJuLPTkfL4U4jCgUEc5nusVbTWfphBZ7eSKNBw1Qwy/Acv3D8w/6HZ/JH7rsUauhkmNx9IGxufoNq5B4Y3QdjDAD+nnSmOFCVCbQSthYKlucRUkDt1CLSKFi/qWe4u+gWbc3cLEfyDoM7UT+XkPnkLd0WeahA3L1XQFqwUFHsc5I7n5fw1PNVMDR7aZVx7GJPPkc9zfO/fA1m2tSH1nJEoKe8QjCpregz5l8vkXGDIJQ/Ih70ExQCrTGoSPpOK9HkNgIqC4p9CvuX5uESfXaaZL58R40ICsaHLyQOiNMwXKILbtQvR4VHMb+0IJHfiWfpiX3sww4VvVZAPsMsYG59jq2ZJGEw7B1wDLUB9eE0wRBYcofkf/7cC1QFqqQs+ix3+SixJvOrIrT00PJUNVJFegLQAy791gPiVh2HwqIQkR5barli1A9EC/mLqiseKFsNplm0f5PMzhfUXA9jkOtXKPaTFsz39DvP6hkQqjYZpkrQrFw+ep2AVDAVGeYBF8kty9WfPIxxC1WF7pkCw7F51wk/wVmEMXAAEEduzycSf2WBRKaeh0LuC7OYKscraGvsYInef7nEHx+Fge1C/YpLeTuF0pPeddtKScNiS295XNKbl+mUEIlbKHguZltOPfh5z6HSOPNvQMvjhoAKAWHclXr5QSn8+JE3/VQRxue9kn/87p0CUsLf9IWPvzgLne+52umy/9HzLaDj41AXmQ826rTOASgV0NFv0LFPCJ00N43qrj0UkoOanVgzGarmEy8N/Efib586Q+V77fJriOA2rejyOvRhMBogICVupkPFiK2ok+yHr3nGRydxEPjd+wTkd7z6NwTEY551164vILQC7t6leuPp4hSQz2gZ6MhTEJANAfGAbrX0ICDWYhcDW87PFVp+KofTPsukeyTkg+f7cudIhBsAywKCSm0cJO7SuyT93ktquBwMiLN3CshHKR2TxIZ5YnHcA6vLn67hHtUYTFeeTcJPN7JoyoWsAYtQcZ+p2WxNPx/huN/Im+6hqoxMHybxDQu9M/ATtjdzQJWTz3qz1UdCqBz5PZ+Ku+AG3SZXKSDuo+WJHtzt3NER2dXodQKqRimbRKf6jLgwdSP8/Bs7dBWQMRJguuZ/+hSMeGZvm+kLYkHBPOceKnfaOWLrp8n6Qd31lxa0xP1Qe/tRcC2Ng6W16UwJTz5XIlPO033wzrTzxSbhtzUFV36zGhSpIL2P5yQH5IKivE67QFxYlxa/4KBmticgGjgUEC057g0+PgSEcU3uZxTyKwvRwQ7VqX9/NtoGww4KIvXqw2rJ+cesVLYknqPBL3nxKxLuQ/+rpymE7+kDY8Gb/FRSyw6FRysOVxumtwOidcd7rUin5R7SiUqtIFp2VJc+cbbcIVH9mnvlluOTaUHHjYCo0vGOFnz2ix36KQELOtwrFK8v4ryb3TQUg9hpOhBVNaVhK/sVCAqj/Xxoj6Q/eFViz0wXCwPVENRPCMIKc5c8BQOB2FSFuHpzarD4kI4OiJkmr2wFSn3xN8JBgAxDs9xhOCNQHpyvQqH1ZohxcJszj2OvJSDllxk2wO/e3YIIZpdTLuxYozwri7WXRAGxxqJgLH4ucO61sNxgNCQcbXltAqroxKn6uKDHSc/WHyX79S70B2sl9cZSSb48VxIvz1GKG0rgXnL9XEkZ4u8k+sRUmeZLEqa8XkEx0tr7YcGNFnvGcAyMB6uQ/BYUwViOXxPnxuBqAbXLpwF+934BEcxyKZdGf/Q8Ruk3qTXEWuwtuHk1l7XemnymRB+/WzIfvu6tdkIYPioLQIn3vEftfh8pNC6zTpVYP1+siejfeBAH1HMIKs5ZfKdOCdVqQZXA38eGgAhmnmMHfvspuXqCuNMvVOF46zAehcdAaJzhbjpN7IU3SgxjqMzHb+ge42rmq8Hnh0rVqLyvv3kFpXatE/uBK3X8Q5VIQ4ctqDMBVcZ/xAciHAmQkcMWEPPOKRJ+v4rfHnEW3SKhiUNhjfUFeecSkFrQr7SC+FkPe8IQcWdcJDEYCcm1zZLe+Zzkvn1fihQaxlmc3dZlicMh9Is0p9sThge4lop5Nf3TO1+QKKxM/aA6Z7XZT8FIiXExr4aK06V7xmNwTAmosj/xO3+dSN2+SpxH78R4B2YyPyei5yfwvAXTsqD6QuZMhbCeu8DpHtOHYWzFA8M4u+A2jxDn3otgYl9YQRfg2QW6/mQ1XwzjYkQ7su+72KPmYXoMnDNzBFo2zGz6K0AwOqnrE/tLziSogDAOoocQ+PJ56gi4f+wIqBbIGj+Eww9IJzctkdhj/4eCGg6TmssJnLnug9YE0rNaeLQJheYJi0sNNlsZhKbHpEKYNLV1BrsrxPCIhwdAcbmdh2vocoM59Ikz3DSz1UioEJBf+apxXAiI8BgFQf3QiuOxRdnPtupqZ3TlWOGKp81+iYbE6P8B/dFQH2Na88M/HumpqEdAPNdGB6U0q2G5+bPhobvZBw2BtTjHG1wbDyAKpiPhEMeNgKqhTLNWUmAYG1Hfq9MinUC+2y25T9+UzO71eqpYavsac/gPyXyCescRUDmupyT59hoQrltXSeqf69VhUid3ae4bwZBqAc+OTwEdLwgE1MsRCKiXIxBQL0cgoF6O31VASP8/kIGhAdUmlNF/muIKECBAgAABAgQIECBAgACHhD/84f8BHP3r/UcvRGkAAAAASUVORK5CYII=;" vertex="1" parent="1">
          <mxGeometry x="413.76" y="350.00000000000006" width="46.58" height="44.79" as="geometry" />
        </mxCell>
        <mxCell id="nAcW2Awi0CvXXOgEEeS_-13" value="" style="shape=image;verticalLabelPosition=bottom;labelBackgroundColor=default;verticalAlign=top;aspect=fixed;imageAspect=0;image=data:image/png,iVBORw0KGgoAAAANSUhEUgAAAJYAAACWCAMAAAF82LFGAAAAAXNSR0IArs4c6QAAAARnQU1BAACxjwv8YQUAAAClUExURQAAAAAAAAAAAAAAAAAAAAAAAAAAAAAAAAAAAAAAAAAAAAAAAAAAAAAAAAAAAAIDBQMFCAUIDQgNFwsSHw0WJg4XJw8aLREcMBEdMRIeNBUiOxUkPRkqRxosSx0xVB4zWCA2XSE3XyI5YiQ9aSdBcChEdCpGeS1LgC1PiS9Ohy9SjzFSjTJUkTRXljZamjlfoztjqzxlrj5ptEFuvEJuvkNwwURyxMhrLuYAAAAOdFJOUwAQQFBgcICPn6+/z9/vraN/ZAAAAAlwSFlzAAAXEQAAFxEByibzPwAAA8VJREFUaEPtm4l22jAQRUnTQLONwxKndZrSpi0kbUOzof//tI7kZyLbIFk2cSjMPQeQZsbvPCTbWBg6K6GM9wgwumueuwgwOmawYx2l6eRjyZIYLYnpUDGG102NZXhiVcGWerAXmN5hKZaCvoZ+YfzQ13DsOkp4tNHXcGwUJaW68raFV81GxTLQ1yCSizUFir1ut4vm0olFzmJFGRpgdVk6JQZnGR9JpCKVqMit1r9Qpsyt9oKrLIeUVS0r0qSsfeDGBhkbZIgPlxM0kbGxM3Y7DzI2yNggY4OMDdEJWmBlFQ46xhwDyNgEVF2qgXpWauasmis1N1U/nFqPauLXUg98QvBXLXBV4UygcVTlkKoMqcpoVFUCGRtkbJCxQcYGGRtkbJD5v9g78lP1gwXj4KaiGKrBHqKd7LMipZYWvUvpoQvqaS0nQKuwd+cJ18JpuEBWEKiFU3+O+lp9iilSX+NziuPHZBjTVW0tsyq8j/gDjB8qmfGl7U1WUEtL66RaRJ/rv8cJPak//Hjx1WC8ymyA1mpEK4doMaKVQ7SYN9TyIloLjlHuZHFZJqyTLq67HRyi1Mc+ZsoNij1k32u6QbGHgtZx11C4JK+ldYpo8XBA0MPraVEvXXbsn6IPUOzhFcd+BSj2sHYttJdiFn9oe3gNLSymCnCijhYuw3NsndYdDfs0U3FMw/jTnNd/VFtrrtdpz/ppwMuqOa+vxpd1tSaX+l31WSfTmozqaiXXWiuZLrTmNKurNTZaWsdoEUV/a4/X3ZnW0mvR7D02mEf6xsM1greGWuoLRbdaYR1aZbZNaymcqKG1EtHKIVqMaOUQLUa0cogWI1o5RIsRrRxGywuKPYhWBoo97IJWpe99j1ErCNuK/vXzWljrwXIA0TVQ8d5NJaqdgSrRmq1e8YbTBySW0patI9RYuHy1Nlr7KFrgvBm06/tWGLtky3kL3oW5RtaIrQq0YQvfH1fCbNCWLXxL7kVsZbbmP885En9/4maSpjVnj+hd3L6Brfs+XbEh9fCRjWiX6nkQzUxjnpjGb6Jp27buMjNKTWik/ZVs6cRNy7bGZO73aZ4HNE1fC7a4puXR4t1nYYvbRVs0jGOiaNr6vjUmc9dWc99P57M0WkzbtnjmMFzZHG6ELb1DE88VP6U7/KbYqoTY2mBb1TEbtGOrBmIrBLEVgtgKQWyFILZCEFshiK0QxFYIYisEsRWC2ApBbIUgtkIQWyGIrRB20lZzxFYIYisEsRXCDtiq9ofzSpR+v9SIA/xzvhmH3eJP0IRtpdP5B4MZ6v1u/XwPAAAAAElFTkSuQmCC;" vertex="1" parent="1">
          <mxGeometry x="402" y="187.5" width="48.6" height="48.6" as="geometry" />
        </mxCell>
        <mxCell id="nAcW2Awi0CvXXOgEEeS_-14" value="" style="shape=image;verticalLabelPosition=bottom;labelBackgroundColor=default;verticalAlign=top;aspect=fixed;imageAspect=0;image=data:image/png,iVBORw0KGgoAAAANSUhEUgAAAJYAAACWCAMAAAF82LFGAAAAAXNSR0IArs4c6QAAAARnQU1BAACxjwv8YQUAAAAzUExURQAAAAAAAAAAAAAAAAAAAAAAAAAAAAAAAAAAAAAAAAAAAAAAAAAAAAAAAAAAAAAAAAAAAKMFRskAAAAQdFJOUwAQIDBAUGBwgI+fr7/P3+8jGoKKAAAACXBIWXMAABcRAAAXEQHKJvM/AAANSElEQVRoQ+1bC5uqOhIUAVFR4f//2q3q6g7hoaAyc3b3m7pzIYROp9OvPOQc3kQPeDHQHzpUXvxJINHRy47eKnVx6LnvOysJeE/KS1bllaS/6tkgyiIjRBkP+L+dNG77Mwq1noGmf1jzhz8DN/BBs74th7YlOzj01W3E7tChJ3aUo2/6/j50ILD1fkAPs145ulllwWtjZQcEuZHUHwkOw9oOlShfWYkC1SXgqYNtc7pDfwIVlNJnJkazrq95O3kN6u58Zsu8E+thzO9Qe5WJLvBR/w0wRxlX2fO06nCAZadVu6Ckr7/kXOH9oIIXgA/BZ5rTmfdnLXpY0wgNXjkFXoAGuqv7vsXtukR5VKjgnVwDA7GWE5AVCDsL6rv1ucQNte2B9kagAhWJFulkHfy1BxGdlwxTiAb2LY9WBHQdoy8qUeIPzgU/zEJ4AF8weO3v6A2meICDEXDIoF4kMrQ0DwZrtLRVpfoFYAhIG9AypMuceQL22h3OEA1h+X8NuBt80h+WQQpimj1z4DUUu4IzO2L4GbxyCRbD51NN935Gd0KG4/04z6YDrLlxIZ7EMF9c8NqchsFutRPcLXdyjGDH7NsveHZBj70VQ4+knukF1XxjrwEopDvc8lRNIMoKJALSUDbcWlym3ngxVnwLkofRNYt2YpBxUrCH0ttMwenV/iyhgQzt5jFCEszO5FZCW95kCtbWyBpdj3UGcsL9KVXhcwvnDo1nCr6tTqLCn2lKxs/BV2f0yHkPf6Z29D6B80AB+cWf5pC0zKBIn7nqRkgM0t9xbm1/A6kgG8XGw3VJLP5vKjd6+38Krq7gfFAF7rYSWOoQSAyoABQWM50RqH2iXwZfkYWRqWoOrS5WOB0enI9E8jq19jZYlf/wL2H5Z4DXvg0kbOG2afX1HFhEAbECLs93TheP65MpYAUX41PZjDPD24IWzoeLvAwvV5DLsGTeGZsqTScY5vujZDNMS0m2Cd4Qi+SYXMSowypqBFtJJLO8BrdKnKa4GLCN6cjHtBxhaTG5jUFhKJP2t5jaDG1dlbUk6i2T3HBfW8uBFeZ0zLP0cd58Kj2WleyphT4KoHy1GjLzQecgwwg4SA5kNEbKREdeXB4vAD4AHhwFHoyD6/9o1kDB362DOoqFTjIEudB2HCJkYrAa8QpAdrQ2wVAqMoAv1ACpcX29whTQxNTO3SyLVI8GiQK3AuxLr9YgiXApjIu3xcChdnuGa0RxDYlXSa1ANygWZlRnAAKISet6ixeIVtXAoPIeoKUUPHS+aXzNYK3QrVRj+oKyUQyL0GlIqBz3EqDH8tdaGQMVxUYjG6yxBgiPDlOjcCZmNGUJ0ODK2ypABmEUbihLRrkU2lM+31KsisYW1ANu4CjBnBk9F+1xteXuOHcvAOIwocZe4aibtdcNPCma1W4DUzzv0J2yFAVEamY9Uj5GuCWCCAplScV9wICii7bRhkKsLimMrboNzBmsx41Z7D1QBNyoM6X+LYl5GWJgGd9yoMukieATuFMM1vgC0L6XmveXEX/4w2+iaOjxgld9hsk6+p1cM0YxCCQoEX2AgonfOFw+F0dwmW6rE8Q6jFEsoYv6Znprz8/PLV8gcSpiwRu4v82vaI3TaKma8EmaTpy6tjkBTPeCE2yGc+rGY9LmyB+2Ql6a0nKhM0TieH3PuNpv2KasOGfOfx2my63gxC0VW2mErZO/wxjQkMt23LrnIMiKsee7x+6SBla7KTfPt7FukFBTZ/Kdmz+tgGsbsjLjSwBX/1XuYcuvbfmHhHGn8fULUsCcxCTewIwaMf8pTSiuS8cgNxvoKjMukOBWF897nnruTVWVTcQQX8T9FTAgmBzqN0Na0zyHyd0oEe+qewaKhaa4wiWNlQuIPbIKloOw0I5V8XNALO2RScdWDKPhlML4eaF8rMQTyCQPhsE2uI3PO9ie9w3hbctazBrQGVWDnYcfXXV3n0u47OVd9C/B/kApncEpGATJ99MDbtsWiRAICqcDuHtl46FwUCFl9prXAJ12VdANruYc5HyjruhwotkkmFFr/ew7vJiLyFa3jYIxPqyJNpEQ0Z2fwPv8ugYoONsd+7Wvipq6gn1x0zHABreAamA/44JdGtwfRTk/00N0AKcbT1CLAGlt7upFsbUPIFCCEe0ZPa7v3ElaerTZRQcLkMMYSE5T/oa0v8ALQwwG8FQrykJrAFE5jDGzq6kKbB/hG+uZVUQDg8T2OMoz7rSvAZuHgnFRYNolah0orzKDk8cxEi4hIvwhVOVYT4ZhISOE8UIYWRMX5RybQNYXoKlVQWHANuMoPxXFFkjXxkAmBEc5hThCJFw3MjPCzC3FXJlBiYM107XBMoxcroSilK9Upisin5G5PX9JGEkHYcxFvQ+yhwo2uGqkObuKo66sQYCTix54ew029DOr/JoE8wfcVmOb9mYLj11c4USDYLiRgmzWh0h6uqAfVuEpZlexRJrkAeYmK3pj3j37MX2SC4xALuiIYa1F3mtUIlI6HliTizyC1a7/bQgDsLFVBJfhZrUbQFZGrPgjWAWN0ySsOa2GdYANjBiDgZoM7uph562gDFS8FUxdhLt6rNi34iFWlC9rhidy9nXBm2ArG+pRwpEZbu3GHJGDo6G2yFKixP1tUMsKPAG6SvZ9Fz5pUeUCBrpthp0DQkBZ9DDk5hhe2ckqHwEsOPNYIbnHh5A4AIa8JZ5f4ZHy+lse+oc//OEP//0oqlNzudxu944zQ/e4fZsxv0JR6TObJWxetuyK8pwdCyzg92eF0QFwoLu37eXSnKqqruuTf0fyayjyb4eArm3Kf2OuDFp/OW7NwqqiALz4a7CzOCI74qYCm/aJ4z+uS6LvDf18dUubsqK6PIvDMb7+tWszyo0SJby/dH8XxUSkrr3Uc8c/1s3F1OvYcNj2Bco8FLu2XvXwUr/K7vFz4zPkvxjem6yjojxdfOohHu31vC7wTmiS7bpBpBW3v+XC/wR4qmPouLMipj72FPdNJ1CfIAkVv1pWuTsTXXs+neqqqsqqPp2v0ynz/gNJIoSKXedIphd2OmYfIaD1hlP0NxAfJrhQWSx253EWL45lWQ4/CAvHLE52zF7ONTRlB0HE8A8Vi2ZmM+B2HuQrk3pnX+R+hvj9c1hvWg9Jpur62u9TOzuKIvYQjMdbM1axSij87QrS5xA3r1g9NV2D96sTEp4zepEY0hjExvTj1Y5jk4fF3X3QWAADl0/gUlna0efBsRouogP40IsAS2uhOD2Pz3Ei930Cd3ZjGD+oSikpuOyXRwLLLn0SQ7SXIYEOgas687H705yyjlwqz1wK8JTGXE9PVjkpuSf6XaJQzpFLZYuTsEOksXDkRbixIgx3yVuXvtN6xC1oUkXGkFCZ89wvseGpsw9/QpLIfnraBTz5BEwql/AhccN4SzPe4H/2aCe5kGu/1b2saUHtOd5O7e3XdqBL/l1gmq6HwExfwZnQ8SXbF94+ggxl/8bEWZtUnjE8wA6n0fzjyT1EkYtljb+Hf7ZhJlS2MgldKlkzfdOXQeK689mD2zEp9yvIm2zCcBOaTfKhD7lV3yMLciN3RpNFAb2P28t1zbM0dHNh7yGz7DB9pynAKjRVmCyurr3T13LRhQihDC4p9ZWbTv73zcwTyEboNmRf86JJxenbvvJ3uUzHEtt8U5rbw+kzsfidAEDDKZWZZbKi/MjkkgBm70yWjPZLZGJ5kSrK4sAnFhZnEhqBapUyMiV+h7lYLGa9Zjp0e7Lowip9XB9xoOLVXy8E4/c7y91WsmKml2W5vThbi8Wk/bV/aYoxj5WEDKRMRW4YCy9FmtlLeWXee3xU9204Zh6bdWUlKUMEZhfZNouESBvYgXc2MsBM/c1C0JDZKytKhybh3HSmCY3BiMN07mC7YNl3Mglz00lz+rFW1pJ3e3pN27MdIPZZlqY1cr3IdJJF/echKrl8KtA4doHsZQJkbqSiusns5eJaZnK5NGVHCO6msCwUs2zk/Vt1LourLpfLoy4WZLOk8RHyOS8PQF8dWrWHnRna5VJqGNkuFCazfgdf7mkCdtex7rMsFmYcyTW2nUbli8LRYuMTxNJJ/yw7rCUzjBZ1uVyuX0kcqzHfW8Alh6OeD5E+V48zQB+tHrIZEHC5pDzffMhanjRC4V/DdTPshvNlfXLoeOlySRR3NterS7kwFX0E85JLmiZcqvBY15aMA4QoZqOwnW8S/el7r5rDu3U3C4tmYRXalShhOyUqH4N74n4I59cOjBXS3WhJF9Yyw8ZG0gOXMbn3eXP6/WKQQmJONu/jXB5PO2XQOSLKh9H6IY4iL8M4l4dg+5whzWCd5R+DuefEGirDRJJwsZn8+6DOfxePQ48FqYCQxN1Q9l8m3RWeVZMGKv8ne+kfenl4eEwe6t/4vSyOmD1T5CfOqJRPpTOkPRd+LxGakKrSyVuC+1Skh9+SS67ivYVSbvC8Oh48iZjv/1AILqBoLpGHXJAUZZ7dRin29zHPqD5B/VA22AhTzthMstxPZfWtODVz3/n3X9384Q//Yzgc/gPNCztoeMd6pQAAAABJRU5ErkJggg==;" vertex="1" parent="1">
          <mxGeometry x="420" y="240.94" width="50" height="50" as="geometry" />
        </mxCell>
        <mxCell id="nAcW2Awi0CvXXOgEEeS_-15" value="&lt;font color=&quot;#ffffff&quot; style=&quot;font-size: 10px;&quot;&gt;National&amp;nbsp; ID&lt;/font&gt;" style="text;html=1;strokeColor=none;fillColor=none;align=center;verticalAlign=middle;whiteSpace=wrap;rounded=0;fontSize=10;fontStyle=1" vertex="1" parent="1">
          <mxGeometry x="315.5" y="436.36" width="70" height="30" as="geometry" />
        </mxCell>
        <mxCell id="nAcW2Awi0CvXXOgEEeS_-16" value="" style="shape=image;verticalLabelPosition=bottom;labelBackgroundColor=default;verticalAlign=top;aspect=fixed;imageAspect=0;image=data:image/png,iVBORw0KGgoAAAANSUhEUgAAALoAAAC6CAMAAAAu0KfDAAAAZlBMVEX///8AAADz8/NLS0vBwcHLy8v6+vrY2NiBgYE0NDR+fn7v7+9oaGiLi4skJCSQkJCkpKSsrKydnZ12dna5ubldXV0pKSkJCQlvb2/S0tI+Pj4vLy8aGhqWlpZGRkZjY2NVVVXk5OQW1EUGAAAM/0lEQVR4nO2d6YKyOgyGZ5BFQWRXUHG5/5s8TbCNzbQIMqMz3+H9RSnLI9ItScvHx6xZs2bNmjVr1qxZs2bN+nflPJavH4xJX8/4UPvYGbTPYUmrBpPXp8UD7T11dCwOXjWwlYitvatfK9vLM3K1r1nd9p0SSHp7212kTvVQduf0+VBEWEMSf0kBW6V+rVSdEat9ntoXQtJ9fLfTYPTFGPRCoYc/hr74GXR66r8FfXdYWXTU0bunDuUwFKdsMMOPHCfyFfpRnLVNZIbjbSCtox9tdzvsRqMfysCi2vDUF1VVXTLIjWBfdqmqRanQw6vM8ODAJSQzHb223a08jEZfBbbspeGps5cogWSq0FuV0WHCVqOjL213C1bfh+4z9PoxeqKjF7DlMXTWHvyv0Z1Ik29AX4rCuT/a0LMNlFB5GccVyUPhwJYB3dfv5kxBd9rz+k51Y0APvKYJzjb0SOQ2qbpKLFJNCcmLAb2p7+92bp0J6NFZq16PrgEdVdjQUZm6Ar4rjUoydPeo3e4cTUFfa9faTEZHVlOT1KFvtNutZ3QTOnRHu0aTGlJCz1VvNtuKkkzNZyObzm38NvSsKIoaa6LAE4p09FNY3NSKzCZX6JHr3RS8DR37W57hCol2WlevU23I9PvRyxn9e9Dj43a7I3RflVpCPx6222MCOaU4eBP6X0eab0EPXCEqnFkRhnWjo4eeOCQVGUULB8MhRarf7s31OorGpoTedWRgiyrC+veh0wCP0HMDevH70E1P/X3o9XFzpxVD96W6K4fi4M9SJD8SsbU9cnSRU/ajr+7vdqynoPuNqynS0bNw2am4QhJLbQvpVGx4oY5+ikVG1Yse6Xdr/AnoJvF6HXVnDINkBlu5jk6yops0o/8ddN8oJ9TRd0KfHuQ8QN/hkQrdl6d0/TLHfLdn0I/10qxwr6PnUKISUWDDphd9jYVYoQeFOCNT6PvQcrv6OBr9gQgdgdGiUfaiU8/XZMzo1w+hk33a7UVnTdKMztH3o9EHvDCIjq1pPRp9PxTd99yHihT6GgpTKXaVV4V+ES1nfJFby66/C8fFsFXC1lqhR703Qnm2qvNpUb3eqH2x4aGxEspMSG+RtUkyodMAj9lh3qI/jE5eAXphlr0vzEvQnTa8KdZ7M34m9hVkOMJ+7Bn2NWof2dxDSKYit+vvkgkpVcmgkHfKsJcbw9ZgJ69B0UXefaubK3zqw6Do0ZPzrlX7WPeLHjNzyHS5ytxbTEF3KnnBFUMf6tXoRzfV691QafsydKsb7Pehc8/uAHTy+74D3UlrqUxZdbO6qIuVjp7BIWnjeQ2NTa9g6W1HowdLect41C/h6KaHS/U6ZZj6MChmcxyA7h1kxuDwBiO6wty9DL1Rf+jgnuNfR49Up32DLsehLwzuQ0sjvtzkY0f0tQG9ZOgwfi3QF6mMYePQ/UB6TbykLoqibO6TnUHXhI6nYff3qra8tTijbaQHhqFH6K7ZSfQIingZijNiyMi2o9FJWELJx+UziwBDN4mGGiRCR7kKvcuFEroe7/I1oW8J3WSH+XZ0AH7CXPrvoEfQS9mZXpjlGHQW8dLo+7yd9uuwhFaIDlvDx6ZJERbLq0o2peZ3gWQZQ08Vh99gQup6viZ0twZfDAx2qUsfrMW5GH2wl93dsAL0vez+FgkMYXFE6uDgdOjYFIMFD9YoJBQ9cGbMYGLxMCgaalj1bB/mQQDVjP6D6NfeYwidGicTev4G9GORxD3K3LJ0sXDWIpWcbOjXUigXhyxdfV9rAK7EfrfdSPRrK85LR1mPBtscJ1eOTDFgYkPadXqhD3CJTFecjD65SWIy9Ryrcf3dGb0X3fTCIPDdKAne+suT6Js4y7L0ol1/B/uyNhFKYYt+J0P34iSJPR09WCY3tZkUDk4q2PL0p36FfSneaHBrqmhwNoCvP9wdlVCq0k3oNNRg9nUUxTiwmF5mEQig1A7uwzD0uxG1Cd1kQkJZvRrdy8HQ1XPl6OM9eIPRrU/9LejKIbMBuIieKxFSp51y2YSBXL0wqUKneoWh3/XcAT1Uv2Qcup+lN2UYz+CmmnIUbGBfQeXm1HXwWnlIZ/3N5Wn0F53EjhZ/+1Xmtq4qpidxgbYcH97wQNb+CgkrDRYnRSWUxB49VY6oavIoickeykNKBqKbBniEPn2A9++gD3lhED17jH5Xm6skWRq7FwZ+yeB6nclUTNuuhOZaCXXVFqKvM1lMUUGrFVPUJbu/KBbsbAleDSqmERTn7Em/qbFyRBEIc1mTfb3Vr2UdZXTWx51Kfo+P19gkoZjz0RosSLI61VnE3STXwD+Bbn9hBqCzasb6wmAJpbka9aixEckvVYcUCp2fxcm9cuiKYmmEjHbfi76ma4GwYj3l4jT8K0+t3KpUBxcUY7m8qtPKwZ1evQ/DZfLgWdFNohiHrjbUHz3JU+/Ps51eJqPzcTy61atBesKrMQ7dNN/0F6AfTOisNTWhm4wsA9BDndBTXYKRwYJoQsrAqIM93wbsPlhqy+XNhFTeyioYekppUYrFVhfeUEkbVIJW3QUk1wo9gKu0aDPCXLAyYWlEAxOOUsGElBTjgwXRcOfATe/GG3eTBg2Pnon6MNh9SdSzpq4ulVCyF2CTSpXjdUr8OjkfNwyd6p+Cc39+mQ1mil+/q1y+cWz6R9GVa6BDbx6jm14YKzrZMe7ikXTnXfgkOjlkEH0LLpcSyuCxldF76JApMhXN1yr/DAkmx5SBjt6s5VyZbtBaSw8MGomueCm0eZXSIfPsUIPN1bgTM9yZPMAoZkJCYUO6NtyOdc4mjU0Ho3t6ksTsMCh8TWrD7aZPM3kJemG43XeiOy9G1ycod452KLWD42F8FcnggpH3WMl5owUUxB0ka4h2aCDQIcSORgqhCzQR+wIHo5NmGYiMWKFDKIOHZrGKwidUGEQAM1Qr4N/XMryhhLvFgzu9K+3H7/WA3W6+oMnmSKI1J0jM0stUsMpRBZVcpviSKGwNO412cymJQnkYev8AD/WdXo0/ha6vyvMA3drzGoeu7j4NPa6LuoZAwPog0bugJKhwdnlz2/pMb2X1FjEoym+NJfkzhoz8dpW6WCj0Zi3KX2VAX8vy2uSbCegkv5bo3CxAooYU/wSTMYBVjoHtUqTp6KznaJRpmkk/+lBH+/8WHVqZLYsuZTJNqTKhU4zDS9CdXIbeO1n4RUsskikGEKrQezouVU0l/pxaLdcAsfbLLgppqV3vvPuKviih7H77DBkWWcLEKkcU9RdZ7BfK022OZMx41r5ul2maST+6KTCW5NrQv8ur8Y+hD31h2Ijaio5j00a5ZoaPTYdOZFPTwnEiGxfVSYtYzlUl28xdTC8cHOjoFVwwi8fPNx06fZBkbWtRreEmzHBXGNYROD+5jNM4dGutj0oMNzGt+/VNSyDM6FZ0NqUqtL4wo8amg6eFdwwqpvcsD4nxt9OkU0S/lrI0RrBFSyN1E8R1dJwlnsiyGrajopCGTMa/PXA5yb5UM+hvjnaxRdGlpThOTh+UZ3SVI03Lp3o9Enu81efus4rUPP8R6GY9uzwfrfRhnfloapKeGJv+DHr/pM1fg54pdLJjMPQB3a9n0R8ssoKiygUtuBTesIRGOYclWEob+llrt70WrUewEEQ2Gf3B0jYMHY698+BBcpeLQtgtjGxC3200od0OSmh3xjT0AQsKsT6ANUbAhG4SeQV+HJ21RjP6S9DxhTnL8SVfssyKvgq1aTJkVkL0SJRfL92+4ql7culGvlCcFb2GJeNuq9rAMnIUgISVy2mzPWx2r3jqbIA3AJ3a1S4URkf31Nju55/6aHRaruR96KanTuENZEci9OYXoIP1t0nUKqAonAJOtU7YSG8Lop8hCT6WIgFjcPoY/eSOMSENX89xu1ptPFU4uwcOS6zSkGGzX622uUI/iuQBF3XElcwPj9F3cNjgRz9pFc3+lUpQrOfbj456zQKgvwa9f2FnWjyrH50570zjjbvpBPoSAqhxY9Mhy2l3s9ebpvHo0oh+qsXBOIbdi60Ke+5eJa6w0NFXIveMlVCjbhLDAtyZvrD2cjz6g0XMEX0Lnx9gayFlsEx5N0PGkauRwwrlDhvlFVput3J5eYKSfP26nPlIdIOeWJ6PZFr3i8lVbrAn9Gb0KSuVDP5MgsnSS8PS1obOGlImmvn4LPqQj1O0l6o6YzBiJjOvhUKHL1Rc8qvMoY9TtAp9DbnY1jrq8pn+1DGjf9ouRx/ySRAnchx0rWJZvctFdPz8Rypz6JMgXaFD9COtZK5ut91p6MHiMLY1fSDrKOlToaNMH2L5UOif6oVnHng2B+8nvyEzBZ21phx9fLDg69CNT11Fl4609I7+1BPPpdl4pk89odT3nvZdxKz+bSda/OhajfnU0xMf2LLmmj6wZcrwbRf4GPWBrVmzZs2aNWvWrFmzZs2a9Qf1H/BoHso0HZ9NAAAAAElFTkSuQmCC;" vertex="1" parent="1">
          <mxGeometry x="437" y="308.06" width="30" height="30" as="geometry" />
        </mxCell>
        <mxCell id="nAcW2Awi0CvXXOgEEeS_-18" value="" style="shape=image;verticalLabelPosition=bottom;labelBackgroundColor=default;verticalAlign=top;aspect=fixed;imageAspect=0;image=data:image/png,iVBORw0KGgoAAAANSUhEUgAAAJYAAACWCAMAAAF82LFGAAAAAXNSR0IArs4c6QAAAARnQU1BAACxjwv8YQUAAAAwUExURQAAAAAAAAAAAAAAAAAAAAAAAAAAAAAAAAAAAAAAAAAAAAAAAAAAAAAAAAAAAAAAAFo/HAsAAAAPdFJOUwAQIEBQYHCAj5+vv8/f70EnA8QAAAAJcEhZcwAAFxEAABcRAcom8z8AAALaSURBVGhD7dsBc6IwEAVgPL2iWO3//7dlsy8EQkhIQKDM+2bOiZvHutrWK7St1vczpLVHnxZ1x2hjL1vTo+SeqzmhXDXKtfXosVY4Z/upusbCbB0cRrWkVHuvvdbk1pBUV8NRcn+Uw79+TnQ1sMdPHguhnEDN+FMv/bqueOZW+zUzgFj7AmEV8ErETO1ntZjOlYpB6YPqo8B0LCw7Nny4kQtSdB4XfGzDHkjhrjW6b1N40w3ppbAISaTwcKmU3vgpPRgmU55VU/rIfkrLYCrCT4UlUuiZSulNWUofAiZTHqQTKfhQqudZt7BWSLVvjTFIEdGx4Ct0gv/tpadBEzV8Z8iGLsr0wjqPeSvCWu3VS6JWupfcCdNdE2rN6RV33F7O0l5Dy177oeM8RxfcupfcCdNdE2rN6RW3bi9naa+hDXqVQxcVOY1BoqqeKAQgYd2epe7oQEREdDqJs6co7xryHeWwd3zb+28bxQmPxP4NXRSKhWp0UVJ54yponnCvF9Z5TtlLop1D9cJCl4le098Iy+5+veLYq5XVq+dAvTyJXvHPL4+UN+qVZVEviXYO1QsLXbIX31dNtHOgXh72yhPuVW52r7v8oLQVuZQ2t5d75igE/ENCxX9VIeGNJp0aV+yyNVd0ICIiIiIiolVcvxqccW2mqRPndpdvnE5ubnT+2rPoxLhJ/RAuYXiO3veFRJnm8caqyPAyRN/0lbwNzBir7JJQEfM7WYJjzcCxPGg6JpunHKvbyoBDzVhYOrbIsQCHfnKsJaQjlo4tciyPdMTSsUWO5UHTMdk85VjdVgYcGsexAIfG7fe5FXXKT/kl0HRMNvcdC0vHFjmWRzpi6djisrG6rQw4lGPNgkM/OdYS0hFLxxb3HStINjlWDo6V4wRjlf3hQJHueuuMsfYwPdYNiSyBD3j3gckx/MORgQaRLPf/nqLL8w+MEHQpGmy55/QPC4iIiIhodVX1C/FAH9csEcFQAAAAAElFTkSuQmCC;" vertex="1" parent="1">
          <mxGeometry x="210" y="396.36" width="40" height="40" as="geometry" />
        </mxCell>
        <mxCell id="nAcW2Awi0CvXXOgEEeS_-19" value="" style="shape=image;verticalLabelPosition=bottom;labelBackgroundColor=default;verticalAlign=top;aspect=fixed;imageAspect=0;image=data:image/png,iVBORw0KGgoAAAANSUhEUgAAAJYAAACWCAMAAAF82LFGAAAAAXNSR0IArs4c6QAAAARnQU1BAACxjwv8YQUAAAAzUExURQAAAAAAAAAAAAAAAAAAAAAAAAAAAAAAAAAAAAAAAAAAAAAAAAAAAAAAAAAAAAAAAAAAAKMFRskAAAAQdFJOUwAQIDBAUGBwgI+fr7/P3+8jGoKKAAAACXBIWXMAABcRAAAXEQHKJvM/AAADd0lEQVRoQ+2bi5qiMAyFcUZQB2/v/7TbJofQG7RFVFbzfzvSJukhdgUhlmZ17iPcac3mb+B+NVZjoH/A2IjARpuCuFrbyJ43HNGhcb935g9NuKWxcThPgtvGdMHMm7mn+eiM7cjhhjHOs5nXorhKm8Ng4wg0yIzW4JbGF0HvOaZ3HRQ2TrJwv1/NHzpdJkwgy4vUBLIUhiUJwwRzMHsGCvilV1iIZFhz86xkAzC16BpgUT4DfEsEmG+w0WGi0ApxHb3t4LzrQlG8L9O42ih0XCqihBWi0N5cXsKmo5IsihLIgLbFds909slF8Wsuyl7pjFEH2wEw8SiiLAoGRVE2wgXHZhm7qRHW4RzpJdhzhtnYgQ7mqotOJjYicfWX4ElaPz7mzLZcK2a5FhuEzczX0ad/RCtGtSKGIXYb8RStvithGGK3EaJVznlWq0rsNDmAtSLozRAwBMDpv60Htez7ndRyL7Bc4B6A1WdNLZpJh/acBu6RExzCAQ5FURRF+RDwE1IRt6kR7NihV4YdkxxBYubSvIbJEVYrXROdhEd0dqQDO1gLpdB56BaUR8xpkSHHcftaR9yDDjyilcBGfJTWN3wm1tTqcc8+8IhWAhuhWi6qZSNUy+UNWijYzEPf/Xmtcma1zmgXMqtlvyfLsZdG01rNCZ0ibDV8RisG3vi0zoxa+5+x/A5nCLxZLS9J9kXAm9WyHVn4QK4YeIu05IKTXDHw5udrruwGc0hQkBq1XOAUYA4JtNI/tsApwBwSaNExHgGnAHNIWHSD2SMqzKFgF9LCLXRwCCf6dUhRFEVRFEVRFEVZzK494hZrPfqTf0OX30cwoqVHJJ6C7Kd4HzJiarHLKuBWuWIfw811urqwEljww/sIi/wBXHEZlgi9Lq10AUfg6k2UVtmqtiKkjqJpFfBfpVWEprXttA740XsCHvT6tPRITKNp1ZBOqwhNS9OaRdOqQdOqQdOqQdOq4QvSegYfl5ZM+DPA80sL0npmXsNTVUvSappfXhe9Lpd+LO4tSysPX2d7ZK7MPeK0sODkD92Rt6Ylz8xFa8nempas84nKl+/9T8TnTpaVCZm0WjwkwCQWFJ7hYrzadUTqI3/rz6kDLZNWZQE6Wn3lkUprglemVbFIsseQCVZNa1c8XbfMSrVV02qafVFit5rjSFEURVEURVlG0/wDizOQw0G2zMQAAAAASUVORK5CYII=;" vertex="1" parent="1">
          <mxGeometry x="170" y="371" width="40" height="40" as="geometry" />
        </mxCell>
      </root>
    </mxGraphModel>
  </diagram>
</mxfile>
